<svg width="24" height="24" viewBox="0 0 24 24" fill="none" xmlns="http://www.w3.org/2000/svg">
<path fill-rule="evenodd" clip-rule="evenodd" d="M12 22.5C14.3869 22.5 16.6761 21.5518 18.364 19.864C20.0518 18.1761 21 15.8869 21 13.5C21 11.1131 20.0518 8.82387 18.364 7.13604C16.6761 5.44821 14.3869 4.5 12 4.5C9.61305 4.5 7.32387 5.44821 5.63604 7.13604C3.94821 8.82387 3 11.1131 3 13.5C3 15.8869 3.94821 18.1761 5.63604 19.864C7.32387 21.5518 9.61305 22.5 12 22.5ZM12 24C14.7848 24 17.4555 22.8938 19.4246 20.9246C21.3938 18.9555 22.5 16.2848 22.5 13.5C22.5 10.7152 21.3938 8.04451 19.4246 6.07538C17.4555 4.10625 14.7848 3 12 3C9.21523 3 6.54451 4.10625 4.57538 6.07538C2.60625 8.04451 1.5 10.7152 1.5 13.5C1.5 16.2848 2.60625 18.9555 4.57538 20.9246C6.54451 22.8938 9.21523 24 12 24Z" fill="white"/>
<path fill-rule="evenodd" clip-rule="evenodd" d="M12 6.75C12.1989 6.75 12.3897 6.82902 12.5303 6.96967C12.671 7.11032 12.75 7.30109 12.75 7.5V13.5C12.75 13.6989 12.671 13.8897 12.5303 14.0303C12.3897 14.171 12.1989 14.25 12 14.25H6.75C6.55109 14.25 6.36032 14.171 6.21967 14.0303C6.07902 13.8897 6 13.6989 6 13.5C6 13.3011 6.07902 13.1103 6.21967 12.9697C6.36032 12.829 6.55109 12.75 6.75 12.75H11.25V7.5C11.25 7.30109 11.329 7.11032 11.4697 6.96967C11.6103 6.82902 11.8011 6.75 12 6.75ZM8.25 0.75C8.25 0.551088 8.32902 0.360322 8.46967 0.21967C8.61032 0.0790176 8.80109 0 9 0L15 0C15.1989 0 15.3897 0.0790176 15.5303 0.21967C15.671 0.360322 15.75 0.551088 15.75 0.75C15.75 0.948912 15.671 1.13968 15.5303 1.28033C15.3897 1.42098 15.1989 1.5 15 1.5H9C8.80109 1.5 8.61032 1.42098 8.46967 1.28033C8.32902 1.13968 8.25 0.948912 8.25 0.75Z" fill="white"/>
<path d="M10.5 1.5H13.5V4.5H10.5V1.5Z" fill="white"/>
</svg>
