<svg width="24" height="24" viewBox="0 0 24 24" fill="none" xmlns="http://www.w3.org/2000/svg">
<g clip-path="url(#clip0)">
<path fill-rule="evenodd" clip-rule="evenodd" d="M3 7.5V18.75C3 20.046 3.963 21 5.0355 21H18.9645C20.037 21 21 20.046 21 18.75V7.5H22.5V18.75C22.5 20.7675 20.9685 22.5 18.9645 22.5H5.0355C3.0315 22.5 1.5 20.7675 1.5 18.75V7.5H3Z" fill="white"/>
<path fill-rule="evenodd" clip-rule="evenodd" d="M8.25 11.25C8.25 11.0511 8.32902 10.8603 8.46967 10.7197C8.61032 10.579 8.80109 10.5 9 10.5H15C15.1989 10.5 15.3897 10.579 15.5303 10.7197C15.671 10.8603 15.75 11.0511 15.75 11.25C15.75 11.4489 15.671 11.6397 15.5303 11.7803C15.3897 11.921 15.1989 12 15 12H9C8.80109 12 8.61032 11.921 8.46967 11.7803C8.32902 11.6397 8.25 11.4489 8.25 11.25ZM22.5 3H1.5V6H22.5V3ZM1.5 1.5C1.10218 1.5 0.720644 1.65804 0.43934 1.93934C0.158035 2.22064 0 2.60218 0 3L0 6C0 6.39782 0.158035 6.77936 0.43934 7.06066C0.720644 7.34196 1.10218 7.5 1.5 7.5H22.5C22.8978 7.5 23.2794 7.34196 23.5607 7.06066C23.842 6.77936 24 6.39782 24 6V3C24 2.60218 23.842 2.22064 23.5607 1.93934C23.2794 1.65804 22.8978 1.5 22.5 1.5H1.5Z" fill="white"/>
</g>
<defs>
<clipPath id="clip0">
<rect width="24" height="24" fill="white"/>
</clipPath>
</defs>
</svg>
