<svg width="20" height="20" viewBox="0 0 20 20" fill="none" xmlns="http://www.w3.org/2000/svg">
<path d="M5.99091 3.33983C5.99507 3.51568 6.06854 3.68276 6.19533 3.80467L12.3906 9.99999L6.19534 16.1953C6.13147 16.2574 6.08071 16.3317 6.04604 16.4138C6.01138 16.4959 5.99352 16.5841 5.99351 16.6732C5.99355 16.8058 6.03313 16.9354 6.10721 17.0454C6.18128 17.1554 6.28648 17.2408 6.40936 17.2907C6.53223 17.3406 6.6672 17.3527 6.797 17.3255C6.9268 17.2983 7.04555 17.233 7.13804 17.138L13.8047 10.4713C13.9297 10.3463 13.9999 10.1768 13.9999 9.99999C13.9999 9.82321 13.9297 9.65366 13.8047 9.52863L7.13804 2.86197C7.04494 2.76515 6.92477 2.69871 6.79327 2.67135C6.66176 2.64399 6.52506 2.65698 6.40107 2.70863C6.27708 2.76029 6.17158 2.84818 6.09839 2.96081C6.0252 3.07344 5.98774 3.20555 5.99091 3.33983V3.33983Z" fill="#EB3359"/>
</svg>
