<svg width="20" height="20" viewBox="0 0 20 20" fill="none" xmlns="http://www.w3.org/2000/svg">
<path d="M14.0091 16.6602C14.0049 16.4843 13.9315 16.3172 13.8047 16.1953L7.60935 10L13.8047 3.8047C13.8685 3.74257 13.9193 3.66828 13.954 3.5862C13.9886 3.50413 14.0065 3.41593 14.0065 3.32684C14.0065 3.19421 13.9669 3.06462 13.8928 2.95461C13.8187 2.8446 13.7135 2.75919 13.5906 2.70928C13.4678 2.65938 13.3328 2.64725 13.203 2.67445C13.0732 2.70166 12.9545 2.76695 12.862 2.86199L6.19529 9.52866C6.07031 9.65369 6.0001 9.82323 6.0001 10C6.0001 10.1768 6.07031 10.3463 6.19529 10.4714L12.862 17.138C12.9551 17.2349 13.0752 17.3013 13.2067 17.3287C13.3382 17.356 13.4749 17.343 13.5989 17.2914C13.7229 17.2397 13.8284 17.1518 13.9016 17.0392C13.9748 16.9266 14.0123 16.7945 14.0091 16.6602V16.6602Z" fill="#1A0352"/>
</svg>
