<svg width="24" height="24" viewBox="0 0 24 24" fill="none" xmlns="http://www.w3.org/2000/svg">
<path d="M11.9999 2.3999C6.6983 2.3999 2.3999 6.6983 2.3999 11.9999C2.3999 17.3015 6.6983 21.5999 11.9999 21.5999C17.3015 21.5999 21.5999 17.3015 21.5999 11.9999C21.5999 6.6983 17.3015 2.3999 11.9999 2.3999ZM16.7999 12.7999H12.7999V16.7999C12.7999 17.2423 12.4415 17.5999 11.9999 17.5999C11.5583 17.5999 11.1999 17.2423 11.1999 16.7999V12.7999H7.1999C6.7583 12.7999 6.3999 12.4423 6.3999 11.9999C6.3999 11.5575 6.7583 11.1999 7.1999 11.1999H11.1999V7.1999C11.1999 6.7575 11.5583 6.3999 11.9999 6.3999C12.4415 6.3999 12.7999 6.7575 12.7999 7.1999V11.1999H16.7999C17.2415 11.1999 17.5999 11.5575 17.5999 11.9999C17.5999 12.4423 17.2415 12.7999 16.7999 12.7999Z" fill="#3CC13B"/>
</svg>
