<svg width="38" height="38" viewBox="0 0 38 38" fill="none" xmlns="http://www.w3.org/2000/svg">
<rect x="1" y="1" width="36" height="36" rx="7" stroke="#05F58F" stroke-width="2"/>
<path fill-rule="evenodd" clip-rule="evenodd" d="M10.75 25.25C10.75 25.0511 10.829 24.8603 10.9697 24.7197C11.1103 24.579 11.3011 24.5 11.5 24.5H26.5C26.6989 24.5 26.8897 24.579 27.0303 24.7197C27.171 24.8603 27.25 25.0511 27.25 25.25C27.25 25.4489 27.171 25.6397 27.0303 25.7803C26.8897 25.921 26.6989 26 26.5 26H11.5C11.3011 26 11.1103 25.921 10.9697 25.7803C10.829 25.6397 10.75 25.4489 10.75 25.25ZM10.75 19.25C10.75 19.0511 10.829 18.8603 10.9697 18.7197C11.1103 18.579 11.3011 18.5 11.5 18.5H26.5C26.6989 18.5 26.8897 18.579 27.0303 18.7197C27.171 18.8603 27.25 19.0511 27.25 19.25C27.25 19.4489 27.171 19.6397 27.0303 19.7803C26.8897 19.921 26.6989 20 26.5 20H11.5C11.3011 20 11.1103 19.921 10.9697 19.7803C10.829 19.6397 10.75 19.4489 10.75 19.25ZM10.75 13.25C10.75 13.0511 10.829 12.8603 10.9697 12.7197C11.1103 12.579 11.3011 12.5 11.5 12.5H26.5C26.6989 12.5 26.8897 12.579 27.0303 12.7197C27.171 12.8603 27.25 13.0511 27.25 13.25C27.25 13.4489 27.171 13.6397 27.0303 13.7803C26.8897 13.921 26.6989 14 26.5 14H11.5C11.3011 14 11.1103 13.921 10.9697 13.7803C10.829 13.6397 10.75 13.4489 10.75 13.25Z" fill="#05F58F"/>
</svg>
