<svg width="24" height="24" viewBox="0 0 24 24" fill="none" xmlns="http://www.w3.org/2000/svg">
<path d="M11.9999 2.3999C6.6983 2.3999 2.3999 6.6983 2.3999 11.9999C2.3999 17.3015 6.6983 21.5999 11.9999 21.5999C17.3015 21.5999 21.5999 17.3015 21.5999 11.9999C21.5999 6.6983 17.3015 2.3999 11.9999 2.3999ZM15.7655 14.6343C16.0783 14.9471 16.0783 15.4527 15.7655 15.7655C15.6095 15.9215 15.4047 15.9999 15.1999 15.9999C14.9951 15.9999 14.7903 15.9215 14.6343 15.7655L11.9999 13.1311L9.3655 15.7655C9.2095 15.9215 9.0047 15.9999 8.7999 15.9999C8.5951 15.9999 8.3903 15.9215 8.2343 15.7655C7.9215 15.4527 7.9215 14.9471 8.2343 14.6343L10.8687 11.9999L8.2343 9.3655C7.9215 9.0527 7.9215 8.5471 8.2343 8.2343C8.5471 7.9215 9.0527 7.9215 9.3655 8.2343L11.9999 10.8687L14.6343 8.2343C14.9471 7.9215 15.4527 7.9215 15.7655 8.2343C16.0783 8.5471 16.0783 9.0527 15.7655 9.3655L13.1311 11.9999L15.7655 14.6343Z" fill="#F03738"/>
</svg>
