<svg width="38" height="38" viewBox="0 0 38 38" fill="none" xmlns="http://www.w3.org/2000/svg">
<rect x="1" y="1" width="36" height="36" rx="7" stroke="#05F58F" stroke-width="2"/>
<path fill-rule="evenodd" clip-rule="evenodd" d="M23.031 9.46906C23.1008 9.53873 23.1563 9.62149 23.1941 9.71261C23.2319 9.80373 23.2513 9.90141 23.2513 10.0001C23.2513 10.0987 23.2319 10.1964 23.1941 10.2875C23.1563 10.3786 23.1008 10.4614 23.031 10.5311L14.5605 19.0001L23.031 27.4691C23.1718 27.6099 23.2509 27.8009 23.2509 28.0001C23.2509 28.1992 23.1718 28.3902 23.031 28.5311C22.8902 28.6719 22.6992 28.751 22.5 28.751C22.3008 28.751 22.1098 28.6719 21.969 28.5311L12.969 19.5311C12.8992 19.4614 12.8437 19.3786 12.8059 19.2875C12.7681 19.1964 12.7487 19.0987 12.7487 19.0001C12.7487 18.9014 12.7681 18.8037 12.8059 18.7126C12.8437 18.6215 12.8992 18.5387 12.969 18.4691L21.969 9.46906C22.0387 9.39921 22.1214 9.3438 22.2125 9.30599C22.3037 9.26818 22.4013 9.24872 22.5 9.24872C22.5986 9.24872 22.6963 9.26818 22.7874 9.30599C22.8786 9.3438 22.9613 9.39921 23.031 9.46906Z" fill="#05F58F"/>
</svg>
