<svg width="38" height="38" viewBox="0 0 38 38" fill="none" xmlns="http://www.w3.org/2000/svg">
<rect width="38" height="38" rx="8" fill="#1A0352"/>
<path fill-rule="evenodd" clip-rule="evenodd" d="M26.5 28C26.5 28 28 28 28 26.5C28 25 26.5 20.5 19 20.5C11.5 20.5 10 25 10 26.5C10 28 11.5 28 11.5 28H26.5ZM11.5075 26.584V26.581V26.584ZM11.533 26.5H26.467C26.474 26.4992 26.481 26.4982 26.488 26.497L26.5 26.494C26.4985 26.125 26.269 25.015 25.252 23.998C24.274 23.02 22.4335 22 19 22C15.565 22 13.726 23.02 12.748 23.998C11.731 25.015 11.503 26.125 11.5 26.494C11.511 26.4961 11.522 26.4981 11.533 26.5ZM26.494 26.584V26.581V26.584ZM19 17.5C19.7956 17.5 20.5587 17.1839 21.1213 16.6213C21.6839 16.0587 22 15.2956 22 14.5C22 13.7044 21.6839 12.9413 21.1213 12.3787C20.5587 11.8161 19.7956 11.5 19 11.5C18.2044 11.5 17.4413 11.8161 16.8787 12.3787C16.3161 12.9413 16 13.7044 16 14.5C16 15.2956 16.3161 16.0587 16.8787 16.6213C17.4413 17.1839 18.2044 17.5 19 17.5ZM23.5 14.5C23.5 15.6935 23.0259 16.8381 22.182 17.682C21.3381 18.5259 20.1935 19 19 19C17.8065 19 16.6619 18.5259 15.818 17.682C14.9741 16.8381 14.5 15.6935 14.5 14.5C14.5 13.3065 14.9741 12.1619 15.818 11.318C16.6619 10.4741 17.8065 10 19 10C20.1935 10 21.3381 10.4741 22.182 11.318C23.0259 12.1619 23.5 13.3065 23.5 14.5Z" fill="white"/>
</svg>
