<?xml version="1.0" encoding="iso-8859-1"?>
<!-- Generator: Adobe Illustrator 18.0.0, SVG Export Plug-In . SVG Version: 6.00 Build 0)  -->
<!DOCTYPE svg PUBLIC "-//W3C//DTD SVG 1.1//EN" "http://www.w3.org/Graphics/SVG/1.1/DTD/svg11.dtd">
<svg version="1.1" id="Capa_1" xmlns="http://www.w3.org/2000/svg" xmlns:xlink="http://www.w3.org/1999/xlink" x="0px" y="0px"
	 viewBox="0 0 304.891 304.891" style="enable-background:new 0 0 304.891 304.891;" xml:space="preserve">
<g>
	<path style="fill:#231F20;" d="M16.493,112.38c0.346,1.959,1.455,3.7,3.085,4.841c1.27,0.888,2.772,1.355,4.301,1.355
		c0.434,0,0.871-0.037,1.304-0.114l88.629-15.647c4.079-0.72,6.802-4.61,6.082-8.689l-3.477-19.695
		c-0.72-4.079-4.608-6.802-8.69-6.082l-36.931,6.52c5.196-6.139,11.076-11.74,17.625-16.754
		c19.761-15.127,43.36-23.123,68.246-23.123c35.418,0,68.029,16.063,89.469,44.07c15.179,19.828,23.193,43.471,23.175,68.371
		c-0.003,4.142,3.353,7.502,7.495,7.505l20,0.015c0.002,0,0.003,0,0.005,0c1.987,0,3.894-0.789,5.299-2.193
		c1.408-1.406,2.199-3.313,2.201-5.302c0.023-32.668-10.483-63.676-30.383-89.672C245.814,21.063,203.066,0,156.643,0
		C124.008,0,93.06,10.485,67.146,30.323c-9.378,7.179-17.861,15.48-25.247,24.642l-6.585-37.299c-0.72-4.079-4.608-6.803-8.69-6.082
		L6.929,15.061c-4.079,0.72-6.802,4.61-6.082,8.689L16.493,112.38z"/>
	<path style="fill:#231F20;" d="M288.398,192.51c-0.346-1.958-1.456-3.7-3.085-4.841c-1.63-1.14-3.646-1.588-5.604-1.241
		l-88.629,15.647c-4.079,0.72-6.802,4.61-6.082,8.689l3.477,19.695c0.72,4.079,4.609,6.799,8.689,6.082l36.932-6.52
		c-5.196,6.14-11.076,11.74-17.625,16.754c-19.76,15.127-43.359,23.123-68.245,23.123c-35.419,0-68.029-16.063-89.47-44.07
		c-15.179-19.828-23.193-43.471-23.175-68.371c0.003-4.142-3.353-7.502-7.495-7.505l-20-0.015c-0.002,0-0.003,0-0.005,0
		c-1.987,0-3.893,0.789-5.299,2.193c-1.408,1.406-2.199,3.313-2.201,5.302c-0.023,32.668,10.483,63.676,30.383,89.672
		c28.114,36.724,70.862,57.787,117.284,57.787c32.635,0,63.583-10.486,89.498-30.324c9.378-7.179,17.861-15.48,25.247-24.642
		l6.585,37.299c0.642,3.638,3.806,6.198,7.377,6.198c0.433,0,0.872-0.038,1.313-0.116l19.695-3.477
		c4.079-0.72,6.802-4.61,6.082-8.69L288.398,192.51z"/>
</g>
<g>
</g>
<g>
</g>
<g>
</g>
<g>
</g>
<g>
</g>
<g>
</g>
<g>
</g>
<g>
</g>
<g>
</g>
<g>
</g>
<g>
</g>
<g>
</g>
<g>
</g>
<g>
</g>
<g>
</g>
</svg>
