<svg width="237" height="33" viewBox="0 0 237 33" fill="none" xmlns="http://www.w3.org/2000/svg">
<path d="M121.378 13.8565C121.378 12.4005 121.638 11.0832 122.158 9.90451C122.695 8.70851 123.415 7.68584 124.316 6.83651C125.217 5.96984 126.257 5.30251 127.436 4.83451C128.632 4.36651 129.889 4.13251 131.206 4.13251C132.437 4.13251 133.563 4.33184 134.586 4.73051C135.626 5.11184 136.527 5.63184 137.29 6.29051C138.07 6.93184 138.703 7.68584 139.188 8.55251C139.673 9.41917 139.994 10.3292 140.15 11.2825C140.202 11.6465 140.037 11.8285 139.656 11.8285H138.642C138.347 11.8285 138.157 11.6725 138.07 11.3605C137.914 10.5805 137.645 9.86984 137.264 9.22851C136.883 8.56984 136.397 8.00651 135.808 7.53851C135.236 7.05317 134.56 6.68051 133.78 6.42051C133 6.14317 132.142 6.00451 131.206 6.00451C130.166 6.00451 129.178 6.19517 128.242 6.57651C127.306 6.94051 126.483 7.46917 125.772 8.16251C125.061 8.83851 124.489 9.66184 124.056 10.6325C123.64 11.6032 123.432 12.6778 123.432 13.8565C123.432 15.0525 123.64 16.1358 124.056 17.1065C124.489 18.0772 125.061 18.9092 125.772 19.6025C126.483 20.2785 127.306 20.8072 128.242 21.1885C129.178 21.5698 130.166 21.7605 131.206 21.7605C132.87 21.7605 134.317 21.3618 135.548 20.5645C136.779 19.7498 137.628 18.6318 138.096 17.2105C138.2 16.9332 138.399 16.7945 138.694 16.7945H139.708C140.107 16.7945 140.254 16.9852 140.15 17.3665C139.89 18.2678 139.483 19.0998 138.928 19.8625C138.391 20.6252 137.732 21.2925 136.952 21.8645C136.189 22.4192 135.314 22.8525 134.326 23.1645C133.355 23.4765 132.315 23.6325 131.206 23.6325C129.889 23.6325 128.632 23.3985 127.436 22.9305C126.257 22.4452 125.217 21.7778 124.316 20.9285C123.415 20.0618 122.695 19.0305 122.158 17.8345C121.638 16.6385 121.378 15.3125 121.378 13.8565Z" fill="#1A0352"/>
<path d="M142.78 16.5605C142.78 15.5898 142.953 14.6798 143.3 13.8305C143.646 12.9812 144.132 12.2445 144.756 11.6205C145.38 10.9965 146.125 10.5025 146.992 10.1385C147.858 9.77451 148.812 9.59251 149.852 9.59251C150.874 9.59251 151.819 9.77451 152.686 10.1385C153.552 10.5025 154.298 10.9965 154.922 11.6205C155.546 12.2445 156.031 12.9812 156.378 13.8305C156.724 14.6798 156.898 15.5898 156.898 16.5605C156.898 17.5485 156.724 18.4758 156.378 19.3425C156.031 20.1918 155.546 20.9372 154.922 21.5785C154.298 22.2025 153.552 22.7052 152.686 23.0865C151.819 23.4505 150.874 23.6325 149.852 23.6325C148.812 23.6325 147.858 23.4505 146.992 23.0865C146.125 22.7052 145.38 22.2025 144.756 21.5785C144.132 20.9372 143.646 20.1918 143.3 19.3425C142.953 18.4758 142.78 17.5485 142.78 16.5605ZM144.704 16.6125C144.704 17.3405 144.825 18.0338 145.068 18.6925C145.328 19.3338 145.683 19.8972 146.134 20.3825C146.602 20.8678 147.148 21.2492 147.772 21.5265C148.413 21.8038 149.106 21.9425 149.852 21.9425C150.597 21.9425 151.282 21.8038 151.906 21.5265C152.53 21.2492 153.067 20.8678 153.518 20.3825C153.968 19.8972 154.315 19.3338 154.558 18.6925C154.818 18.0338 154.948 17.3405 154.948 16.6125C154.948 15.8672 154.818 15.1738 154.558 14.5325C154.315 13.8738 153.968 13.3105 153.518 12.8425C153.067 12.3572 152.53 11.9758 151.906 11.6985C151.282 11.4212 150.597 11.2825 149.852 11.2825C149.106 11.2825 148.413 11.4212 147.772 11.6985C147.148 11.9758 146.602 12.3572 146.134 12.8425C145.683 13.3105 145.328 13.8738 145.068 14.5325C144.825 15.1738 144.704 15.8672 144.704 16.6125Z" fill="#1A0352"/>
<path d="M160.944 23.3725C160.597 23.3725 160.424 23.1992 160.424 22.8525V10.3725C160.424 10.0258 160.597 9.85251 160.944 9.85251H161.334C161.663 9.85251 161.854 10.0085 161.906 10.3205L161.958 10.7885C162.062 11.4818 162.426 11.6205 163.05 11.2045C164.766 10.1298 166.534 9.59251 168.354 9.59251C169.827 9.59251 170.971 10.0172 171.786 10.8665C172.618 11.6985 173.034 12.9292 173.034 14.5585V22.8525C173.034 23.1992 172.861 23.3725 172.514 23.3725H171.604C171.257 23.3725 171.084 23.1992 171.084 22.8525V14.6365C171.084 13.5445 170.807 12.7212 170.252 12.1665C169.697 11.5945 168.9 11.3085 167.86 11.3085C167.08 11.3085 166.265 11.4732 165.416 11.8025C164.584 12.1145 163.752 12.5392 162.92 13.0765C162.539 13.3365 162.348 13.6832 162.348 14.1165V22.8525C162.348 23.1992 162.175 23.3725 161.828 23.3725H160.944Z" fill="#1A0352"/>
<path d="M177.905 23.3725C177.558 23.3725 177.385 23.1992 177.385 22.8525V10.3725C177.385 10.0258 177.558 9.85251 177.905 9.85251H178.295C178.624 9.85251 178.815 10.0085 178.867 10.3205L178.919 10.7885C179.023 11.4818 179.387 11.6205 180.011 11.2045C181.727 10.1298 183.495 9.59251 185.315 9.59251C186.788 9.59251 187.932 10.0172 188.747 10.8665C189.579 11.6985 189.995 12.9292 189.995 14.5585V22.8525C189.995 23.1992 189.822 23.3725 189.475 23.3725H188.565C188.218 23.3725 188.045 23.1992 188.045 22.8525V14.6365C188.045 13.5445 187.768 12.7212 187.213 12.1665C186.658 11.5945 185.861 11.3085 184.821 11.3085C184.041 11.3085 183.226 11.4732 182.377 11.8025C181.545 12.1145 180.713 12.5392 179.881 13.0765C179.5 13.3365 179.309 13.6832 179.309 14.1165V22.8525C179.309 23.1992 179.136 23.3725 178.789 23.3725H177.905Z" fill="#1A0352"/>
<path d="M193.358 16.5605C193.358 15.5725 193.531 14.6538 193.878 13.8045C194.225 12.9552 194.693 12.2185 195.282 11.5945C195.889 10.9705 196.599 10.4852 197.414 10.1385C198.229 9.77451 199.104 9.59251 200.04 9.59251C200.941 9.59251 201.773 9.77451 202.536 10.1385C203.299 10.4852 203.957 10.9705 204.512 11.5945C205.084 12.2012 205.517 12.9118 205.812 13.7265C206.124 14.5412 206.28 15.4078 206.28 16.3265C206.28 16.5518 206.202 16.7425 206.046 16.8985C205.89 17.0372 205.691 17.1065 205.448 17.1065L196.192 17.0805C195.897 17.0805 195.672 17.1672 195.516 17.3405C195.377 17.4965 195.334 17.7218 195.386 18.0165C195.646 19.1952 196.192 20.1485 197.024 20.8765C197.873 21.5872 198.896 21.9425 200.092 21.9425C201.063 21.9425 201.886 21.7432 202.562 21.3445C203.255 20.9285 203.741 20.3565 204.018 19.6285C204.122 19.3512 204.321 19.2125 204.616 19.2125H205.396C205.569 19.2125 205.699 19.2645 205.786 19.3685C205.89 19.4552 205.916 19.5938 205.864 19.7845C205.691 20.3218 205.422 20.8332 205.058 21.3185C204.711 21.7865 204.287 22.1938 203.784 22.5405C203.299 22.8698 202.744 23.1385 202.12 23.3465C201.496 23.5372 200.82 23.6325 200.092 23.6325C199.121 23.6325 198.22 23.4592 197.388 23.1125C196.573 22.7485 195.863 22.2545 195.256 21.6305C194.667 20.9892 194.199 20.2352 193.852 19.3685C193.523 18.5018 193.358 17.5658 193.358 16.5605ZM195.646 14.5065C195.525 14.8012 195.533 15.0352 195.672 15.2085C195.828 15.3818 196.062 15.4685 196.374 15.4685L203.394 15.4945C203.689 15.4945 203.905 15.4078 204.044 15.2345C204.2 15.0612 204.235 14.8272 204.148 14.5325C203.905 13.5965 203.42 12.8165 202.692 12.1925C201.981 11.5685 201.089 11.2565 200.014 11.2565C199.026 11.2565 198.133 11.5512 197.336 12.1405C196.556 12.7298 195.993 13.5185 195.646 14.5065Z" fill="#1A0352"/>
<path d="M220.547 14.6365C220.27 14.6365 220.079 14.4805 219.975 14.1685C219.871 13.8045 219.698 13.4578 219.455 13.1285C219.213 12.7818 218.909 12.4698 218.545 12.1925C218.181 11.9152 217.765 11.6985 217.297 11.5425C216.829 11.3692 216.318 11.2825 215.763 11.2825C215.053 11.2825 214.394 11.4212 213.787 11.6985C213.181 11.9585 212.652 12.3225 212.201 12.7905C211.751 13.2585 211.395 13.8218 211.135 14.4805C210.893 15.1218 210.771 15.8325 210.771 16.6125C210.771 17.4098 210.901 18.1378 211.161 18.7965C211.421 19.4378 211.777 19.9925 212.227 20.4605C212.678 20.9285 213.198 21.2925 213.787 21.5525C214.394 21.8125 215.035 21.9425 215.711 21.9425C216.751 21.9425 217.644 21.7085 218.389 21.2405C219.152 20.7552 219.655 20.0878 219.897 19.2385C220.001 18.9438 220.192 18.7965 220.469 18.7965H221.327C221.743 18.7965 221.908 18.9872 221.821 19.3685C221.683 19.9925 221.423 20.5645 221.041 21.0845C220.677 21.6045 220.227 22.0552 219.689 22.4365C219.169 22.8178 218.571 23.1125 217.895 23.3205C217.219 23.5285 216.509 23.6325 215.763 23.6325C214.758 23.6325 213.822 23.4505 212.955 23.0865C212.106 22.7225 211.369 22.2285 210.745 21.6045C210.139 20.9632 209.662 20.2092 209.315 19.3425C208.969 18.4758 208.795 17.5485 208.795 16.5605C208.795 15.5725 208.969 14.6538 209.315 13.8045C209.662 12.9552 210.139 12.2185 210.745 11.5945C211.369 10.9705 212.097 10.4852 212.929 10.1385C213.779 9.77451 214.706 9.59251 215.711 9.59251C216.543 9.59251 217.306 9.72251 217.999 9.98251C218.71 10.2252 219.325 10.5545 219.845 10.9705C220.383 11.3865 220.825 11.8718 221.171 12.4265C221.518 12.9638 221.752 13.5185 221.873 14.0905C221.908 14.2638 221.882 14.4025 221.795 14.5065C221.709 14.5932 221.57 14.6365 221.379 14.6365H220.547Z" fill="#1A0352"/>
<path d="M224.204 11.5165C223.858 11.5165 223.684 11.3432 223.684 10.9965V10.3725C223.684 10.0258 223.858 9.85251 224.204 9.85251H225.348C225.678 9.85251 225.842 9.68784 225.842 9.35851V6.96651C225.842 6.67184 225.99 6.48117 226.284 6.39451L227.142 6.16051C227.333 6.10851 227.48 6.12584 227.584 6.21251C227.688 6.29917 227.74 6.42917 227.74 6.60251V9.35851C227.74 9.68784 227.905 9.85251 228.234 9.85251H233.798C234.162 9.85251 234.344 10.0258 234.344 10.3725V10.9965C234.344 11.3432 234.162 11.5165 233.798 11.5165H228.234C227.905 11.5165 227.74 11.6812 227.74 12.0105V18.1205C227.74 18.7792 227.827 19.3512 228 19.8365C228.174 20.3045 228.408 20.6945 228.702 21.0065C228.997 21.3185 229.326 21.5525 229.69 21.7085C230.072 21.8645 230.47 21.9425 230.886 21.9425C231.718 21.9425 232.472 21.7085 233.148 21.2405C233.824 20.7552 234.301 20.0705 234.578 19.1865C234.682 18.8918 234.873 18.7445 235.15 18.7445H235.93C236.312 18.7445 236.476 18.9352 236.424 19.3165C236.13 20.6685 235.488 21.7258 234.5 22.4885C233.512 23.2512 232.334 23.6325 230.964 23.6325C230.271 23.6325 229.604 23.5198 228.962 23.2945C228.338 23.0518 227.792 22.7052 227.324 22.2545C226.856 21.7865 226.484 21.2145 226.206 20.5385C225.929 19.8452 225.79 19.0392 225.79 18.1205V12.0105C225.79 11.6812 225.626 11.5165 225.296 11.5165H224.204Z" fill="#1A0352"/>
<path d="M66.643 23.1318C70.4689 23.1318 73.201 20.6728 73.201 17.0662V9.44227C73.201 8.95028 72.9277 8.6499 72.4086 8.6499H70.6868C70.1957 8.6499 69.8953 8.95028 69.8953 9.44227V17.1752C69.8953 18.9516 68.6106 20.2356 66.6433 20.2356C64.7033 20.2356 63.4187 18.9516 63.4187 17.1752V9.44227C63.4187 8.95028 63.1183 8.6499 62.6272 8.6499H60.9054C60.3863 8.6499 60.113 8.95028 60.113 9.44227V17.0662C60.1127 20.6728 62.8182 23.1318 66.643 23.1318Z" fill="#1A0352"/>
<path d="M85.1862 14.3336L79.7215 14.3062C79.1202 14.3062 78.7653 13.8967 79.0656 13.3499C79.7761 11.929 81.1153 11.109 82.6177 11.109C84.1211 11.109 85.3507 11.9836 85.8969 13.3773C86.1153 13.9509 85.7878 14.3336 85.1862 14.3336ZM82.6458 8.37695C78.4646 8.37695 75.3225 11.4099 75.3225 15.6722C75.3225 20.0166 78.4926 23.1316 82.6729 23.1316C85.8424 23.1316 88.1652 21.3829 88.957 19.1149C89.1486 18.5958 88.7934 18.2403 88.2466 18.2403H86.717C86.2798 18.2403 86.0337 18.4596 85.7878 18.8416C85.2958 19.7708 84.2299 20.3721 82.6729 20.3721C80.8146 20.3721 79.3663 19.3339 78.793 17.585C78.6294 17.0113 78.9566 16.6284 79.5579 16.6284L88.5199 16.6558C89.039 16.6558 89.3945 16.328 89.3945 15.8364C89.5041 11.4642 86.3341 8.37695 82.6458 8.37695Z" fill="#1A0352"/>
<path d="M94.8553 12.4756C94.8553 11.6016 95.757 10.9728 97.5328 10.9728C99.2814 10.9728 100.156 11.6558 100.456 12.694C100.648 13.1586 100.866 13.4044 101.331 13.4044H102.806C103.353 13.4044 103.68 13.0769 103.571 12.5578C103.052 10.1256 101.085 8.37695 97.5873 8.37695C93.7074 8.37695 91.6307 10.1533 91.6307 12.5301C91.6307 18.1318 100.648 15.8635 100.648 18.8693C100.675 19.9624 99.5824 20.536 97.8606 20.536C96.0568 20.536 94.773 19.853 94.2539 18.6235C94.0626 18.1863 93.8168 17.9676 93.3519 17.9676H91.8223C91.2754 17.9676 90.9751 18.2686 91.0844 18.8148C91.6858 21.602 94.3362 23.1319 97.7786 23.1319C101.358 23.1319 103.899 21.602 103.899 18.8693C103.899 13.2951 94.8553 15.4537 94.8553 12.4756Z" fill="#1A0352"/>
<path d="M118.24 17.6669H116.738C116.301 17.6669 116.027 17.8854 115.836 18.3228C115.344 19.5524 114.251 20.2899 112.912 20.2899C111.546 20.2899 110.344 19.2517 110.344 17.0111V12.0378C110.344 11.6829 110.59 11.4645 110.945 11.4645H116.273C116.765 11.4645 117.065 11.1635 117.065 10.6721V9.44258C117.065 8.95059 116.765 8.65022 116.273 8.65022H110.945C110.59 8.65022 110.344 8.43179 110.344 8.04886V5.53528C110.344 4.98846 110.016 4.68808 109.469 4.82486L107.83 5.2343C107.393 5.37108 107.147 5.64434 107.147 6.13604V8.04886C107.147 8.43179 106.928 8.65022 106.573 8.65022H105.835C105.316 8.65022 105.043 8.95059 105.043 9.44258V10.6721C105.043 11.1638 105.316 11.4645 105.808 11.4645H106.463C106.819 11.4645 107.038 11.6829 107.038 12.0378V17.0111C107.038 21.0548 109.688 23.1319 113.103 23.1319C116.246 23.1319 118.431 21.3826 118.978 18.5135C119.088 17.995 118.787 17.6669 118.24 17.6669Z" fill="#1A0352"/>
<path d="M47.2399 20.1015C44.1813 20.1015 41.7121 18.4223 40.6658 15.7785C40.6599 15.7565 40.6545 15.7404 40.6491 15.7183C40.5782 15.5333 40.5129 15.3476 40.4533 15.1515C40.257 14.47 40.1536 13.7283 40.1536 12.9434C40.1536 8.6478 43.1898 5.66577 47.295 5.66577C50.3474 5.66577 52.8228 7.34497 53.8696 9.99444C53.8753 10.0108 53.8804 10.0272 53.886 10.0433C53.957 10.2284 54.0222 10.4194 54.0768 10.6158C54.2731 11.3023 54.3765 12.0384 54.3765 12.8236C54.3759 17.1195 51.3394 20.1015 47.2399 20.1015ZM73.8543 26.2834L72.497 24.7517C72.2842 24.5118 71.9245 24.4737 71.668 24.6591C69.8636 25.9404 62.8259 29.8489 53.2257 21.5137C55.8638 19.8834 57.6196 17.1415 57.8652 13.7781C57.8759 13.6905 57.8759 13.5981 57.8809 13.5108C57.8869 13.3201 57.9084 13.1344 57.9084 12.9437C57.9084 12.9273 57.9027 12.9058 57.9027 12.8892C57.9027 12.8677 57.9084 12.8457 57.9084 12.8239C57.9084 12.5408 57.8869 12.2628 57.8649 11.9841V11.957C57.5865 8.42967 55.6403 5.57876 52.7459 3.99223C52.7346 3.98657 52.7239 3.97584 52.7078 3.97018C52.4786 3.84472 52.2384 3.72493 51.9988 3.61616C51.9443 3.59411 51.8901 3.57236 51.8352 3.54524C51.6117 3.45256 51.3829 3.35959 51.1487 3.27794C51.0777 3.25589 51.0068 3.23413 50.9359 3.20702C50.7014 3.13043 50.4671 3.0601 50.2219 2.99991C50.173 2.98352 50.1295 2.97786 50.0801 2.96713C49.1807 2.7487 48.2319 2.62384 47.2399 2.62384C46.2151 2.62384 45.2391 2.75436 44.3124 2.98918H44.3067C44.0945 3.04342 43.8818 3.10361 43.669 3.16887C43.5492 3.21268 43.4238 3.25082 43.3037 3.29433C43.1508 3.34886 43.0039 3.40339 42.8564 3.46329C42.6931 3.52915 42.5405 3.59947 42.3826 3.6704C42.2571 3.73059 42.1317 3.78513 42.0065 3.85039C41.8644 3.92697 41.7282 4.00862 41.5866 4.08491C38.7953 5.69289 36.9257 8.51668 36.6638 11.9895C36.6587 12.0822 36.6587 12.1695 36.653 12.2625C36.6423 12.4475 36.6256 12.6329 36.6256 12.8236V12.9434C36.6256 13.2324 36.6477 13.5105 36.6638 13.7885C36.6694 13.7942 36.6694 13.8049 36.6694 13.8106C36.9418 17.343 38.8933 20.1939 41.783 21.7804C41.7988 21.7861 41.8101 21.7917 41.8208 21.7968C42.0554 21.9223 42.2896 22.0421 42.5348 22.1514C42.5894 22.1735 42.6439 22.2003 42.6984 22.2224C42.9219 22.3204 43.1505 22.4074 43.385 22.4897C43.4509 22.5168 43.5212 22.5385 43.5927 22.5606C43.8326 22.6366 44.0665 22.7075 44.3121 22.7727C44.3556 22.7841 44.4048 22.7948 44.4483 22.8058C45.3533 23.0237 46.3021 23.1491 47.2941 23.1491C48.1663 23.1491 49.0168 23.0511 49.8181 22.8767C55.5858 28.3554 60.781 29.9687 64.8919 29.9687C69.3507 29.9687 72.5235 28.0774 73.7447 27.2105C74.0501 26.9921 74.1052 26.5615 73.8543 26.2834Z" fill="#1A0352"/>
<path d="M18.7272 20.3751L15.1286 22.4545C14.9364 22.5659 14.6995 22.5659 14.5073 22.4545L9.58202 19.6119C9.3913 19.499 9.2724 19.2966 9.2724 19.0723V14.9224L18.7272 20.3751ZM9.2721 11.1313V9.49411C9.2721 9.30935 9.42289 9.15886 9.60794 9.15886H20.0282C20.213 9.15886 20.3635 9.30965 20.3635 9.49411V17.5292L9.2721 11.1313ZM26.3508 20.9824L23.6483 19.4236V6.54486C23.6483 6.17415 23.347 5.87258 22.976 5.87258H6.65958C6.28888 5.87258 5.98731 6.17385 5.98731 6.54486V20.3804C5.98731 20.9672 6.3002 21.5101 6.80888 21.804L13.9965 25.9541C14.2513 26.101 14.5335 26.1735 14.8181 26.1735C15.1003 26.1735 15.3858 26.101 15.6396 25.9541L22.0123 22.2721L24.7055 23.825L15.547 29.1123C15.0964 29.373 14.538 29.373 14.0865 29.1123L4.10637 23.352V23.3497L4.08491 23.3389C3.58964 23.0436 3.28479 22.5066 3.28479 21.9285V5.83026C3.28479 4.42403 4.42522 3.28479 5.82967 3.28479H23.8059C25.2118 3.28479 26.3508 4.42373 26.3508 5.83026V20.9824ZM25.5092 0H4.12633C1.85055 0 0 1.85055 0 4.12544V22.7501C0 23.9984 0.669892 25.1612 1.75191 25.7858L12.4434 31.9575C13.1746 32.3798 13.9962 32.5929 14.8175 32.5929C15.6367 32.5929 16.4579 32.3798 17.1895 31.9575L27.8813 25.7855C28.9639 25.1609 29.6356 23.9981 29.6356 22.7498V4.12514C29.6356 1.85055 27.7829 0 25.5092 0Z" fill="#05F58F"/>
</svg>
