<svg width="255" height="106" viewBox="0 0 255 106" fill="none" xmlns="http://www.w3.org/2000/svg">
<path d="M139.633 64.5944C146.181 64.5944 150.858 60.4301 150.858 54.3174V41.4056C150.858 40.5728 150.389 40.063 149.501 40.063H146.554C145.712 40.063 145.197 40.5728 145.197 41.4056V54.5042C145.197 57.5126 142.999 59.6881 139.633 59.6881C136.313 59.6881 134.115 57.5126 134.115 54.5042V41.4056C134.115 40.5728 133.6 40.063 132.758 40.063H129.81C128.923 40.063 128.454 40.5728 128.454 41.4056V54.3174C128.459 60.425 133.09 64.5944 139.633 64.5944Z" fill="white"/>
<path d="M171.37 49.6888L162.017 49.6434C160.987 49.6434 160.38 48.9518 160.895 48.0231C162.109 45.6154 164.404 44.2273 166.974 44.2273C169.544 44.2273 171.651 45.7062 172.584 48.0685C172.961 49.0427 172.4 49.6888 171.37 49.6888ZM167.025 39.5986C159.87 39.5986 154.489 44.7371 154.489 51.9552C154.489 59.3146 159.916 64.5894 167.071 64.5894C172.497 64.5894 176.47 61.6264 177.827 57.7852C178.153 56.9069 177.546 56.3062 176.613 56.3062H173.997C173.247 56.3062 172.829 56.6797 172.405 57.3258C171.564 58.9007 169.738 59.9203 167.076 59.9203C163.894 59.9203 161.415 58.1637 160.436 55.2008C160.155 54.2266 160.716 53.5805 161.746 53.5805L177.082 53.6259C177.97 53.6259 178.576 53.0707 178.576 52.2378C178.76 44.8279 173.334 39.5986 167.025 39.5986Z" fill="white"/>
<path d="M187.92 46.5441C187.92 45.0651 189.465 44.0001 192.499 44.0001C195.493 44.0001 196.987 45.156 197.503 46.9176C197.829 47.705 198.206 48.1189 198.997 48.1189H201.521C202.455 48.1189 203.016 47.5637 202.832 46.6854C201.945 42.5666 198.579 39.6036 192.591 39.6036C185.951 39.6036 182.396 42.612 182.396 46.64C182.396 56.1295 197.829 52.2883 197.829 57.3763C197.875 59.2287 196.003 60.1979 193.06 60.1979C189.975 60.1979 187.777 59.042 186.889 56.9573C186.563 56.2153 186.14 55.8468 185.344 55.8468H182.728C181.795 55.8468 181.279 56.3566 181.463 57.2804C182.493 61.9999 187.027 64.5943 192.918 64.5943C199.043 64.5943 203.393 62.0049 203.393 57.3763C203.398 47.9322 187.92 51.5866 187.92 46.5441Z" fill="white"/>
<path d="M227.939 55.337H225.369C224.619 55.337 224.155 55.7055 223.824 56.4475C222.982 58.5322 221.11 59.7789 218.821 59.7789C216.485 59.7789 214.424 58.0224 214.424 54.2266V45.8021C214.424 45.2014 214.843 44.8329 215.455 44.8329H224.573C225.415 44.8329 225.93 44.3231 225.93 43.4903V41.4056C225.93 40.5728 225.415 40.0629 224.573 40.0629H215.455C214.848 40.0629 214.424 39.6945 214.424 39.0433V34.7831C214.424 33.8594 213.863 33.3496 212.93 33.5818L210.125 34.2733C209.375 34.5055 208.957 34.9699 208.957 35.8028V39.0433C208.957 39.6945 208.585 40.0629 207.973 40.0629H206.708C205.821 40.0629 205.351 40.5728 205.351 41.4056V43.4903C205.351 44.3231 205.821 44.8329 206.662 44.8329H207.784C208.391 44.8329 208.768 45.2014 208.768 45.8021V54.2266C208.768 61.0762 213.302 64.5944 219.152 64.5944C224.533 64.5944 228.271 61.6314 229.204 56.7705C229.388 55.8923 228.873 55.337 227.939 55.337Z" fill="white"/>
<path d="M106.427 59.4609C101.194 59.4609 96.9663 56.6141 95.1762 52.1369C95.166 52.1015 95.1558 52.0712 95.1456 52.0359C95.0232 51.7229 94.911 51.41 94.809 51.0769C94.4724 49.9209 94.2939 48.6641 94.2939 47.3366C94.2939 40.0629 99.4908 35.0103 106.513 35.0103C111.736 35.0103 115.974 37.8571 117.764 42.3445C117.774 42.3697 117.785 42.4 117.79 42.4252C117.912 42.7382 118.024 43.0612 118.116 43.3944C118.453 44.5553 118.631 45.8021 118.631 47.1347C118.641 54.4083 113.444 59.4609 106.427 59.4609ZM151.975 69.9297L149.649 67.3352C149.287 66.9314 148.67 66.8658 148.232 67.1788C145.146 69.3492 133.1 75.9717 116.668 61.8535C121.181 59.0925 124.19 54.4487 124.608 48.7499C124.629 48.6035 124.629 48.447 124.634 48.2956C124.644 47.9726 124.68 47.6596 124.68 47.3366C124.68 47.3113 124.67 47.2709 124.67 47.2457C124.67 47.2104 124.68 47.17 124.68 47.1347C124.68 46.6551 124.644 46.1857 124.603 45.7112V45.6658C124.129 39.6894 120.799 34.8639 115.841 32.1735C115.821 32.1634 115.806 32.1483 115.775 32.1382C115.382 31.9262 114.974 31.7243 114.561 31.5375C114.47 31.5022 114.378 31.4618 114.281 31.4164C113.898 31.2599 113.506 31.1034 113.108 30.9621C112.985 30.9268 112.863 30.8864 112.746 30.8409C112.343 30.7097 111.945 30.5936 111.522 30.4927C111.44 30.4674 111.364 30.4573 111.277 30.4371C109.737 30.0687 108.115 29.8567 106.417 29.8567C104.662 29.8567 102.994 30.0788 101.408 30.4775H101.398C101.036 30.5684 100.669 30.6693 100.307 30.7804C100.103 30.8561 99.8886 30.9217 99.6795 30.9924C99.4194 31.0832 99.1644 31.1791 98.9145 31.2801C98.634 31.3911 98.3739 31.5123 98.1036 31.6284C97.8894 31.7293 97.6752 31.8252 97.461 31.9312C97.2162 32.0625 96.9867 32.1988 96.7419 32.33C91.9632 35.0557 88.7655 39.8358 88.3167 45.7213C88.3065 45.8778 88.3065 46.0242 88.2963 46.1857C88.2759 46.4987 88.2504 46.8116 88.2504 47.1347V47.3366C88.2504 47.8262 88.2861 48.2956 88.3167 48.7701C88.3269 48.7802 88.3269 48.7953 88.3269 48.8054C88.791 54.7868 92.1315 59.6174 97.0785 62.3028C97.104 62.3129 97.1244 62.3229 97.1448 62.328C97.5477 62.54 97.9455 62.7419 98.3688 62.9287C98.4606 62.964 98.5575 63.0094 98.6493 63.0498C99.0318 63.2164 99.4245 63.3628 99.8223 63.5041C99.9345 63.5495 100.057 63.5849 100.179 63.6252C100.587 63.7565 100.99 63.8726 101.408 63.9836C101.485 64.0038 101.566 64.0189 101.643 64.0391C103.193 64.4076 104.815 64.6196 106.513 64.6196C108.008 64.6196 109.461 64.453 110.833 64.1603C120.707 73.4378 129.596 76.1736 136.629 76.1736C144.259 76.1736 149.69 72.9684 151.781 71.4995C152.312 71.131 152.403 70.4042 151.975 69.9297Z" fill="white"/>
<path d="M57.6299 59.9253L51.4691 63.4485C51.1427 63.6353 50.7348 63.6353 50.4083 63.4485L41.9781 58.6331C41.6517 58.4413 41.4477 58.0981 41.4477 57.7195V50.6882L57.6299 59.9253ZM41.4477 44.2676V41.4914C41.4477 41.1785 41.7078 40.921 42.024 40.921H59.8586C60.1748 40.921 60.4349 41.1785 60.4349 41.4914V55.0998L41.4477 44.2676ZM70.6757 60.95L66.05 58.3101V36.4943C66.05 35.8684 65.5349 35.3535 64.8974 35.3535H36.975C36.3426 35.3535 35.8224 35.8633 35.8224 36.4943V59.9304C35.8224 60.9247 36.3579 61.8434 37.23 62.3431L49.5312 69.3744C49.9646 69.6218 50.4491 69.748 50.9387 69.748C51.4232 69.748 51.9077 69.6268 52.3463 69.3744L63.2552 63.1406L67.8656 65.7704L52.1933 74.7249C51.4233 75.1691 50.4645 75.1691 49.6944 74.7249L32.6043 64.9628V64.9578L32.5686 64.9376C31.722 64.4379 31.2018 63.5293 31.2018 62.5501V35.2879C31.2018 32.9054 33.1551 30.9772 35.5572 30.9772H66.3203C68.7275 30.9772 70.6757 32.9054 70.6757 35.2879V60.95ZM69.2375 25.4097H32.64C28.7436 25.4097 25.5765 28.5443 25.5765 32.3956V63.9432C25.5765 66.0582 26.724 68.0267 28.5753 69.0867L46.8741 79.5403C48.1236 80.2571 49.5311 80.6155 50.9387 80.6155C52.3412 80.6155 53.7488 80.2521 54.9983 79.5403L73.2971 69.0867C75.1484 68.0267 76.301 66.0582 76.301 63.9432V32.3956C76.2959 28.5443 73.1288 25.4097 69.2375 25.4097Z" fill="#05F58F"/>
</svg>
