<svg width="250" height="69" viewBox="0 0 250 69" fill="none" xmlns="http://www.w3.org/2000/svg">
<path d="M140.081 49.0362C148.114 49.0362 153.849 43.8736 153.849 36.3019V20.2963C153.849 19.2634 153.275 18.6328 152.186 18.6328H148.571C147.54 18.6328 146.909 19.2634 146.909 20.2963V36.5309C146.909 40.2601 144.212 42.9559 140.082 42.9559C136.009 42.9559 133.312 40.2601 133.312 36.5309V20.2963C133.312 19.2634 132.682 18.6328 131.651 18.6328H128.036C126.946 18.6328 126.372 19.2634 126.372 20.2963V36.3019C126.372 43.8736 132.052 49.0362 140.081 49.0362Z" fill="#1A0352"/>
<path d="M179.011 30.5658L167.539 30.5083C166.276 30.5083 165.531 29.6487 166.162 28.5007C167.653 25.5178 170.465 23.7961 173.619 23.7961C176.775 23.7961 179.357 25.6323 180.503 28.5583C180.962 29.7626 180.274 30.5658 179.011 30.5658ZM173.678 18.0605C164.9 18.0605 158.303 24.428 158.303 33.3761C158.303 42.4968 164.959 49.0363 173.735 49.0363C180.389 49.0363 185.265 45.3653 186.928 40.6037C187.33 39.5139 186.584 38.7676 185.436 38.7676H182.225C181.307 38.7676 180.79 39.228 180.274 40.0301C179.241 41.9807 177.004 43.2432 173.735 43.2432C169.833 43.2432 166.793 41.0636 165.589 37.3919C165.246 36.1876 165.933 35.3837 167.195 35.3837L186.01 35.4412C187.1 35.4412 187.846 34.753 187.846 33.7208C188.076 24.5419 181.421 18.0605 173.678 18.0605Z" fill="#1A0352"/>
<path d="M199.31 26.6652C199.31 24.8303 201.203 23.5102 204.931 23.5102C208.603 23.5102 210.439 24.9441 211.069 27.1237C211.471 28.0991 211.93 28.6152 212.905 28.6152H216.003C217.151 28.6152 217.838 27.9277 217.609 26.8378C216.519 21.7316 212.389 18.0605 205.046 18.0605C196.9 18.0605 192.541 21.7898 192.541 26.7797C192.541 38.5399 211.471 33.7777 211.471 40.0882C211.529 42.383 209.234 43.5873 205.62 43.5873C201.833 43.5873 199.138 42.1534 198.048 39.5721C197.646 38.6544 197.13 38.1952 196.154 38.1952H192.943C191.795 38.1952 191.164 38.827 191.394 39.9738C192.656 45.8251 198.22 49.037 205.448 49.037C212.962 49.037 218.298 45.8251 218.298 40.0882C218.298 28.3856 199.31 32.9175 199.31 26.6652Z" fill="#1A0352"/>
<path d="M248.405 37.5633H245.25C244.334 37.5633 243.759 38.0219 243.357 38.9403C242.324 41.5216 240.029 43.0699 237.219 43.0699C234.351 43.0699 231.827 40.8903 231.827 36.1864V25.7456C231.827 25.0005 232.343 24.5419 233.088 24.5419H244.274C245.307 24.5419 245.938 23.91 245.938 22.8784V20.2971C245.938 19.2643 245.307 18.6336 244.274 18.6336H233.088C232.343 18.6336 231.827 18.1751 231.827 17.3712V12.0941C231.827 10.9462 231.139 10.3155 229.991 10.6027L226.55 11.4623C225.631 11.7494 225.115 12.3231 225.115 13.3554V17.3712C225.115 18.1751 224.656 18.6336 223.911 18.6336H222.362C221.272 18.6336 220.699 19.2643 220.699 20.2971V22.8784C220.699 23.9107 221.272 24.5419 222.305 24.5419H223.68C224.427 24.5419 224.886 25.0005 224.886 25.7456V36.1864C224.886 44.6759 230.45 49.0364 237.62 49.0364C244.217 49.0364 248.806 45.364 249.953 39.3407C250.184 38.2521 249.552 37.5633 248.405 37.5633Z" fill="#1A0352"/>
<path d="M99.3467 42.675C92.9254 42.675 87.7416 39.1497 85.5451 33.5993C85.5326 33.553 85.5213 33.5192 85.5101 33.4729C85.3612 33.0844 85.2242 32.6947 85.0991 32.283C84.6868 30.8523 84.4697 29.2951 84.4697 27.6473C84.4697 18.6291 90.844 12.3686 99.4624 12.3686C105.871 12.3686 111.067 15.8939 113.265 21.4562C113.277 21.4907 113.288 21.5251 113.3 21.5588C113.449 21.9473 113.586 22.3484 113.7 22.7606C114.112 24.202 114.329 25.7473 114.329 27.3958C114.328 36.4146 107.953 42.675 99.3467 42.675ZM155.221 55.6533L152.371 52.4377C151.925 51.934 151.17 51.854 150.631 52.2431C146.843 54.9332 132.068 63.1387 111.913 45.6398C117.452 42.2171 121.138 36.4609 121.653 29.3996C121.676 29.2157 121.676 29.0217 121.687 28.8384C121.699 28.438 121.744 28.0483 121.744 27.6479C121.744 27.6135 121.732 27.5684 121.732 27.5334C121.732 27.4884 121.744 27.4421 121.744 27.3964C121.744 26.8021 121.699 26.2184 121.653 25.6334V25.5765C121.068 18.1712 116.983 12.186 110.906 8.85522C110.882 8.84333 110.86 8.82081 110.826 8.80892C110.345 8.54554 109.841 8.29405 109.338 8.0657C109.223 8.01941 109.109 7.97374 108.994 7.91681C108.525 7.72224 108.044 7.52705 107.553 7.35563C107.404 7.30934 107.255 7.26367 107.106 7.20674C106.614 7.04596 106.122 6.89831 105.607 6.77194C105.505 6.73753 105.413 6.72565 105.309 6.70312C103.421 6.24455 101.429 5.98242 99.3467 5.98242C97.1952 5.98242 95.1463 6.25644 93.2007 6.74942H93.1888C92.7434 6.86328 92.2967 6.98965 91.85 7.12666C91.5985 7.21863 91.3351 7.2987 91.083 7.39004C90.7621 7.50453 90.4536 7.61902 90.144 7.74476C89.8011 7.88302 89.4808 8.03067 89.1492 8.17956C88.8859 8.30593 88.6225 8.42042 88.3597 8.55743C88.0613 8.71821 87.7754 8.88963 87.4782 9.04978C81.6182 12.4256 77.6931 18.3538 77.1432 25.6447C77.1326 25.8393 77.1326 26.0226 77.1207 26.2178C77.0981 26.6063 77.0631 26.9954 77.0631 27.3958V27.6473C77.0631 28.2541 77.1094 28.8378 77.1432 29.4215C77.1551 29.4334 77.1551 29.4559 77.1551 29.4678C77.7269 36.8838 81.824 42.869 87.8905 46.1997C87.9237 46.2116 87.9475 46.2235 87.97 46.2341C88.4623 46.4975 88.9541 46.749 89.4689 46.9786C89.5834 47.0249 89.6979 47.0812 89.8124 47.1275C90.2816 47.3333 90.7614 47.516 91.2538 47.6887C91.3921 47.7456 91.5397 47.7913 91.6898 47.8376C92.1935 47.9971 92.6846 48.146 93.2001 48.283C93.2914 48.3068 93.3946 48.3293 93.486 48.3524C95.3859 48.8098 97.3779 49.0731 99.4605 49.0731C101.292 49.0731 103.077 48.8673 104.759 48.5013C116.868 60.0032 127.775 63.3902 136.405 63.3902C145.766 63.3902 152.427 59.4195 154.991 57.5996C155.632 57.141 155.748 56.237 155.221 55.6533Z" fill="#1A0352"/>
<path d="M39.4872 43.249L31.9323 47.6145C31.5288 47.8485 31.0314 47.8485 30.6279 47.6145L20.2878 41.6469C19.8875 41.4097 19.6378 40.985 19.6378 40.5139V31.8016L39.4872 43.249ZM19.6372 23.8426V20.4055C19.6372 20.0177 19.9538 19.7017 20.3423 19.7017H42.2186C42.6064 19.7017 42.9224 20.0183 42.9224 20.4055V37.2745L19.6372 23.8426ZM55.4921 44.524L49.8185 41.2515V14.2139C49.8185 13.4356 49.186 12.8025 48.4071 12.8025H14.1525C13.3742 12.8025 12.7411 13.435 12.7411 14.2139V43.2603C12.7411 44.4921 13.398 45.632 14.4659 46.2488L29.5556 54.9617C30.0905 55.2701 30.683 55.4221 31.2804 55.4221C31.8729 55.4221 32.4722 55.2701 33.0052 54.9617L46.3839 47.2317L52.0381 50.4917L32.8107 61.5919C31.8647 62.1393 30.6923 62.1393 29.7445 61.5919L8.79228 49.4989V49.4939L8.74724 49.4713C7.70747 48.8514 7.06747 47.724 7.06747 46.5103V12.7137C7.06747 9.76143 9.46168 7.36972 12.4102 7.36972H50.1494C53.101 7.36972 55.4921 9.7608 55.4921 12.7137V44.524ZM53.7254 0.473633H8.8342C4.05642 0.473633 0.171387 4.35867 0.171387 9.13457V48.2351C0.171387 50.8558 1.57776 53.2969 3.84934 54.6082L26.2949 67.5652C27.8302 68.4517 29.555 68.899 31.2792 68.899C32.999 68.899 34.7231 68.4517 36.259 67.5652L58.7052 54.6076C60.9781 53.2963 62.3882 50.8552 62.3882 48.2345V9.13394C62.3882 4.35867 58.4988 0.473633 53.7254 0.473633Z" fill="#05F58F"/>
</svg>
