<svg xmlns="http://www.w3.org/2000/svg" width="48" height="48" fill="none" viewBox="0 0 48 48">
    <circle cx="24" cy="24" r="24" fill="#fff"/>
    <g fill="#1A0352" clip-path="url(#clip0)">
        <path fill-rule="evenodd" d="M17.25 15.9h10.8c.716 0 1.403.284 1.91.79.506.507.79 1.194.79 1.91v13.5c0 .716-.284 1.403-.79 1.91-.507.506-1.194.79-1.91.79h-10.8c-.716 0-1.403-.284-1.91-.79-.505-.507-.79-1.194-.79-1.91V18.6c0-.716.284-1.403.79-1.91.507-.506 1.194-.79 1.91-.79zm0 1.35c-.358 0-.701.142-.954.395-.254.254-.396.597-.396.955v13.5c0 .358.142.701.396.955.253.253.596.395.954.395h10.8c.358 0 .701-.142.955-.395.253-.254.395-.597.395-.955V18.6c0-.358-.142-.701-.395-.955-.253-.253-.597-.395-.955-.395h-10.8z" clip-rule="evenodd"/>
        <path d="M19.95 13.2h10.8c.716 0 1.403.285 1.91.79.506.507.79 1.194.79 1.91v13.5c0 .716-.285 1.403-.79 1.91-.507.506-1.194.79-1.91.79v-1.35c.358 0 .701-.142.955-.395.253-.254.395-.597.395-.955V15.9c0-.358-.142-.701-.395-.955-.254-.253-.597-.395-.955-.395h-10.8c-.358 0-.701.142-.955.395-.253.254-.395.597-.395.955h-1.35c0-.716.285-1.403.79-1.91.507-.505 1.194-.79 1.91-.79z"/>
    </g>
    <defs>
        <clipPath id="clip0">
            <path fill="#fff" d="M0 0H21.6V21.6H0z" transform="translate(13.2 13.2)"/>
        </clipPath>
    </defs>
</svg>
