<svg width="48" height="48" viewBox="0 0 48 48" fill="none" xmlns="http://www.w3.org/2000/svg">
<circle cx="24" cy="24" r="24" fill="#05F58F"/>
<g clip-path="url(#clip0)">
<path fill-rule="evenodd" clip-rule="evenodd" d="M33.45 32.1C33.45 32.1 34.8 32.1 34.8 30.75C34.8 29.4 33.45 25.35 28.05 25.35C22.65 25.35 21.3 29.4 21.3 30.75C21.3 32.1 22.65 32.1 22.65 32.1H33.45ZM22.6567 30.8256V30.8229V30.8256ZM22.6797 30.75H33.4203C33.4266 30.7493 33.4329 30.7484 33.4392 30.7473L33.45 30.7446C33.4473 30.3882 33.2245 29.3541 32.424 28.4226C31.6788 27.5492 30.3693 26.7 28.05 26.7C25.732 26.7 24.4225 27.5505 23.676 28.4226C22.8754 29.3541 22.6513 30.3896 22.65 30.7446C22.6598 30.7465 22.6697 30.7483 22.6797 30.75V30.75ZM33.4432 30.8256V30.8229V30.8256ZM28.05 22.65C28.766 22.65 29.4528 22.3656 29.9591 21.8592C30.4655 21.3529 30.75 20.6661 30.75 19.95C30.75 19.2339 30.4655 18.5472 29.9591 18.0408C29.4528 17.5345 28.766 17.25 28.05 17.25C27.3339 17.25 26.6471 17.5345 26.1408 18.0408C25.6344 18.5472 25.35 19.2339 25.35 19.95C25.35 20.6661 25.6344 21.3529 26.1408 21.8592C26.6471 22.3656 27.3339 22.65 28.05 22.65ZM32.1 19.95C32.1 20.4819 31.9952 21.0085 31.7917 21.4999C31.5881 21.9913 31.2898 22.4377 30.9137 22.8138C30.5377 23.1899 30.0912 23.4882 29.5998 23.6917C29.1085 23.8953 28.5818 24 28.05 24C27.5181 24 26.9915 23.8953 26.5001 23.6917C26.0087 23.4882 25.5622 23.1899 25.1862 22.8138C24.8101 22.4377 24.5118 21.9913 24.3082 21.4999C24.1047 21.0085 24 20.4819 24 19.95C24 18.8759 24.4266 17.8458 25.1862 17.0862C25.9457 16.3267 26.9758 15.9 28.05 15.9C29.1241 15.9 30.1542 16.3267 30.9137 17.0862C31.6733 17.8458 32.1 18.8759 32.1 19.95V19.95ZM22.5636 25.728C22.0235 25.558 21.4669 25.4462 20.9031 25.3946C20.5862 25.3644 20.2682 25.3496 19.95 25.35C14.55 25.35 13.2 29.4 13.2 30.75C13.2 31.6505 13.6495 32.1 14.55 32.1H20.2416C20.0414 31.6786 19.9416 31.2165 19.95 30.75C19.95 29.3865 20.4589 27.9933 21.4215 26.8296C21.7495 26.4327 22.1316 26.0615 22.5636 25.728ZM19.842 26.7C17.5902 26.727 16.3117 27.564 15.576 28.4226C14.77 29.3595 14.55 30.3977 14.55 30.75H18.6C18.6 29.3393 19.036 27.9339 19.842 26.7ZM15.225 20.625C15.225 19.5509 15.6516 18.5208 16.4112 17.7612C17.1707 17.0017 18.2008 16.575 19.275 16.575C20.3491 16.575 21.3792 17.0017 22.1387 17.7612C22.8983 18.5208 23.325 19.5509 23.325 20.625C23.325 21.6992 22.8983 22.7293 22.1387 23.4888C21.3792 24.2483 20.3491 24.675 19.275 24.675C18.2008 24.675 17.1707 24.2483 16.4112 23.4888C15.6516 22.7293 15.225 21.6992 15.225 20.625V20.625ZM19.275 17.925C18.5589 17.925 17.8721 18.2095 17.3658 18.7158C16.8594 19.2222 16.575 19.9089 16.575 20.625C16.575 21.3411 16.8594 22.0279 17.3658 22.5342C17.8721 23.0406 18.5589 23.325 19.275 23.325C19.991 23.325 20.6778 23.0406 21.1841 22.5342C21.6905 22.0279 21.975 21.3411 21.975 20.625C21.975 19.9089 21.6905 19.2222 21.1841 18.7158C20.6778 18.2095 19.991 17.925 19.275 17.925Z" fill="#1A0352"/>
</g>
<defs>
<clipPath id="clip0">
<rect width="21.6" height="21.6" fill="white" transform="translate(13.2 13.2)"/>
</clipPath>
</defs>
</svg>
