<svg width="48" height="48" viewBox="0 0 48 48" fill="none" xmlns="http://www.w3.org/2000/svg">
<circle cx="24" cy="24" r="24" fill="#05F58F"/>
<g clip-path="url(#clip0)">
<path fill-rule="evenodd" clip-rule="evenodd" d="M17.25 15.9H28.05C28.7661 15.9 29.4529 16.1845 29.9592 16.6908C30.4656 17.1972 30.75 17.8839 30.75 18.6V32.1C30.75 32.8161 30.4656 33.5029 29.9592 34.0092C29.4529 34.5156 28.7661 34.8 28.05 34.8H17.25C16.534 34.8 15.8472 34.5156 15.3409 34.0092C14.8345 33.5029 14.55 32.8161 14.55 32.1V18.6C14.55 17.8839 14.8345 17.1972 15.3409 16.6908C15.8472 16.1845 16.534 15.9 17.25 15.9V15.9ZM17.25 17.25C16.892 17.25 16.5486 17.3923 16.2955 17.6454C16.0423 17.8986 15.9 18.242 15.9 18.6V32.1C15.9 32.4581 16.0423 32.8014 16.2955 33.0546C16.5486 33.3078 16.892 33.45 17.25 33.45H28.05C28.4081 33.45 28.7515 33.3078 29.0046 33.0546C29.2578 32.8014 29.4 32.4581 29.4 32.1V18.6C29.4 18.242 29.2578 17.8986 29.0046 17.6454C28.7515 17.3923 28.4081 17.25 28.05 17.25H17.25Z" fill="#1A0352"/>
<path d="M19.95 13.2H30.75C31.4661 13.2 32.1528 13.4845 32.6592 13.9908C33.1655 14.4972 33.45 15.1839 33.45 15.9V29.4C33.45 30.1161 33.1655 30.8029 32.6592 31.3092C32.1528 31.8155 31.4661 32.1 30.75 32.1V30.75C31.108 30.75 31.4514 30.6078 31.7046 30.3546C31.9578 30.1014 32.1 29.7581 32.1 29.4V15.9C32.1 15.542 31.9578 15.1986 31.7046 14.9454C31.4514 14.6922 31.108 14.55 30.75 14.55H19.95C19.592 14.55 19.2486 14.6922 18.9954 14.9454C18.7422 15.1986 18.6 15.542 18.6 15.9H17.25C17.25 15.1839 17.5345 14.4972 18.0408 13.9908C18.5472 13.4845 19.2339 13.2 19.95 13.2V13.2Z" fill="#1A0352"/>
</g>
<defs>
<clipPath id="clip0">
<rect width="21.6" height="21.6" fill="white" transform="translate(13.2 13.2)"/>
</clipPath>
</defs>
</svg>
