<svg width="48" height="48" viewBox="0 0 48 48" fill="none" xmlns="http://www.w3.org/2000/svg">
<circle cx="24" cy="24" r="24" fill="#05F58F"/>
<g clip-path="url(#clip0)">
<path d="M34.1277 15.819C34.2538 15.9456 34.3246 16.1169 34.3246 16.2956C34.3246 16.4742 34.2538 16.6456 34.1277 16.7721L32.7196 18.1815L30.0196 15.4815L31.4277 14.0721C31.5542 13.9456 31.7259 13.8745 31.9049 13.8745C32.0839 13.8745 32.2555 13.9456 32.3821 14.0721L34.1277 15.8177V15.819ZM31.7652 19.1346L29.0652 16.4346L19.8676 25.6335C19.7933 25.7078 19.7374 25.7984 19.7043 25.8981L18.6175 29.157C18.5978 29.2165 18.595 29.2802 18.6094 29.3411C18.6239 29.402 18.6549 29.4577 18.6992 29.502C18.7435 29.5462 18.7992 29.5773 18.8601 29.5917C18.921 29.6062 18.9847 29.6034 19.0441 29.5836L22.303 28.4969C22.4026 28.4642 22.4932 28.4087 22.5676 28.3349L31.7652 19.136V19.1346Z" fill="#1A0352"/>
<path fill-rule="evenodd" clip-rule="evenodd" d="M14.55 31.425C14.55 31.9621 14.7634 32.4771 15.1432 32.8569C15.5229 33.2366 16.038 33.45 16.575 33.45H31.425C31.9621 33.45 32.4772 33.2366 32.8569 32.8569C33.2367 32.4771 33.45 31.9621 33.45 31.425V23.325C33.45 23.146 33.3789 22.9743 33.2523 22.8477C33.1258 22.7211 32.9541 22.65 32.775 22.65C32.596 22.65 32.4243 22.7211 32.2978 22.8477C32.1712 22.9743 32.1 23.146 32.1 23.325V31.425C32.1 31.604 32.0289 31.7757 31.9023 31.9023C31.7758 32.0289 31.6041 32.1 31.425 32.1H16.575C16.396 32.1 16.2243 32.0289 16.0978 31.9023C15.9712 31.7757 15.9 31.604 15.9 31.425V16.575C15.9 16.396 15.9712 16.2243 16.0978 16.0977C16.2243 15.9711 16.396 15.9 16.575 15.9H25.35C25.5291 15.9 25.7008 15.8289 25.8273 15.7023C25.9539 15.5757 26.025 15.404 26.025 15.225C26.025 15.046 25.9539 14.8743 25.8273 14.7477C25.7008 14.6211 25.5291 14.55 25.35 14.55H16.575C16.038 14.55 15.5229 14.7633 15.1432 15.1431C14.7634 15.5229 14.55 16.0379 14.55 16.575V31.425Z" fill="#1A0352"/>
</g>
<defs>
<clipPath id="clip0">
<rect width="21.6" height="21.6" fill="white" transform="translate(13.2 13.2)"/>
</clipPath>
</defs>
</svg>
