<svg width="48" height="48" viewBox="0 0 48 48" fill="none" xmlns="http://www.w3.org/2000/svg">
<circle cx="24" cy="24" r="24" fill="#05F58F"/>
<g clip-path="url(#clip0)">
<path d="M12.438 13.488C11.5403 13.488 10.8 14.2283 10.8 15.126V30.192C10.8 31.1483 11.5718 31.92 12.528 31.92H14.886C15.1605 33.5535 16.5803 34.8 18.288 34.8C19.9958 34.8 21.4155 33.5535 21.69 31.92H27.018C27.4433 31.92 27.8235 31.74 28.116 31.47C28.4153 31.7333 28.7978 31.9155 29.232 31.92H29.862C30.1365 33.5535 31.5563 34.8 33.264 34.8C35.1653 34.8 36.72 33.2453 36.72 31.344C36.72 29.4428 35.1653 27.888 33.264 27.888C31.5563 27.888 30.1365 29.1345 29.862 30.768H29.232C29.124 30.768 28.9598 30.6938 28.836 30.57C28.7123 30.4463 28.656 30.2978 28.656 30.192V19.248C28.656 19.032 29.016 18.672 29.232 18.672H33.84C34.2923 18.672 34.929 19.1558 35.37 19.68C35.3745 19.6868 35.3835 19.6913 35.388 19.698L35.478 19.824H32.688C31.77 19.824 30.96 20.5665 30.96 21.552V23.856C30.96 24.3353 31.176 24.756 31.482 25.062C31.788 25.368 32.2088 25.584 32.688 25.584H38.448V30.192C38.448 30.408 38.088 30.768 37.872 30.768H36.72V31.92H37.872C38.8283 31.92 39.6 31.1483 39.6 30.192V24.648C39.6 23.3295 38.682 22.164 38.682 22.164H38.664L36.288 18.996V18.978L36.27 18.96C35.739 18.3188 34.9425 17.52 33.84 17.52H29.232C29.0273 17.52 28.8383 17.5628 28.656 17.628V15.162C28.656 14.2778 27.9585 13.488 27.036 13.488H12.438ZM12.438 14.64H27.036C27.2835 14.64 27.504 14.8785 27.504 15.162V30.282C27.504 30.552 27.2903 30.768 27.018 30.768H21.69C21.4155 29.1345 19.9958 27.888 18.288 27.888C16.5803 27.888 15.1605 29.1345 14.886 30.768H12.528C12.312 30.768 11.952 30.4058 11.952 30.192V15.126C11.952 14.856 12.1635 14.64 12.438 14.64ZM32.688 20.976H36.342L37.746 22.848C37.746 22.848 38.268 23.7413 38.376 24.432H32.688C32.5913 24.432 32.436 24.36 32.31 24.234C32.184 24.108 32.112 23.9528 32.112 23.856V21.552C32.112 21.2618 32.454 20.976 32.688 20.976ZM18.288 29.04C19.5683 29.04 20.592 30.0638 20.592 31.344C20.592 32.6243 19.5683 33.648 18.288 33.648C17.0078 33.648 15.984 32.6243 15.984 31.344C15.984 30.0638 17.0078 29.04 18.288 29.04ZM33.264 29.04C34.5443 29.04 35.568 30.0638 35.568 31.344C35.568 32.6243 34.5443 33.648 33.264 33.648C31.9838 33.648 30.96 32.6243 30.96 31.344C30.96 30.0638 31.9838 29.04 33.264 29.04Z" fill="#1A0352" stroke="#1A0352" stroke-width="0.3"/>
<path d="M20.5934 21.62C21.8986 21.8101 23.2419 22.2029 23.2419 23.8883C23.2419 25.1301 22.1521 25.9158 20.6188 26.0805C20.4921 26.0932 20.4287 26.1566 20.4287 26.2706V26.7522C20.4287 26.9549 20.3146 27.069 20.1119 27.069H19.9725C19.7697 27.069 19.6557 26.9676 19.6557 26.7648V26.2706C19.6557 26.1566 19.605 26.0805 19.491 26.0679L20.5934 21.62ZM20.5934 21.62C20.4794 21.6073 20.4287 21.5313 20.4287 21.4172V19.0222C20.4287 18.8955 20.5047 18.8195 20.6441 18.8575C21.2904 19.0476 21.7593 19.5164 21.9747 20.1247L20.5934 21.62ZM19.4843 26.1174L19.4854 26.1176C19.5318 26.1227 19.5595 26.1397 19.5765 26.1618C19.5945 26.185 19.6057 26.2204 19.6057 26.2706V26.7648C19.6057 26.8755 19.637 26.9665 19.7038 27.0293C19.77 27.0917 19.8634 27.119 19.9725 27.119H20.1119C20.2225 27.119 20.3159 27.0877 20.3817 27.0219C20.4474 26.9562 20.4787 26.8627 20.4787 26.7522V26.2706C20.4787 26.2231 20.4916 26.1928 20.5116 26.1729C20.5323 26.1522 20.5671 26.136 20.6237 26.1303L20.6241 26.1303C21.3972 26.0472 22.063 25.8072 22.5366 25.4273C23.0115 25.0465 23.2919 24.5257 23.2919 23.8883C23.2919 23.0293 22.948 22.4939 22.4348 22.1518C21.9258 21.8125 21.2539 21.6657 20.6006 21.5705L20.6006 21.5705L20.5989 21.5703C20.5526 21.5652 20.5249 21.5482 20.5079 21.5261C20.4899 21.5029 20.4787 21.4675 20.4787 21.4172V19.0222C20.4787 18.9678 20.495 18.934 20.516 18.9166C20.5359 18.9002 20.5712 18.8895 20.6305 18.9056C21.2605 19.0911 21.7173 19.5478 21.9275 20.1414L21.9276 20.1415C21.9615 20.2365 22.0107 20.3123 22.0791 20.3642C22.148 20.4163 22.2321 20.4408 22.3295 20.4408H22.849C22.9657 20.4408 23.0647 20.4064 23.1266 20.3326C23.1888 20.2583 23.2041 20.155 23.1766 20.0376C22.9058 18.8004 21.9767 17.9373 20.6153 17.7312C20.5654 17.7199 20.5324 17.7016 20.5117 17.6787C20.4915 17.6564 20.4787 17.6249 20.4787 17.5776V17.2608C20.4787 17.1503 20.4474 17.0568 20.3817 16.991C20.3159 16.9253 20.2225 16.894 20.1119 16.894H19.9725C19.8619 16.894 19.7685 16.9253 19.7027 16.991C19.637 17.0568 19.6057 17.1503 19.6057 17.2608V17.5523C19.6057 17.6 19.5926 17.6345 19.5712 17.658C19.5498 17.6816 19.515 17.6999 19.4606 17.7053L19.4605 17.7053C17.9644 17.8588 16.8939 18.7327 16.8939 19.96C16.8939 20.8043 17.2168 21.4232 17.7046 21.8478C18.1911 22.2712 18.8384 22.4989 19.4855 22.5694L19.491 22.5197L19.4854 22.5694C19.5318 22.5746 19.5595 22.5915 19.5765 22.6136C19.5945 22.6369 19.6057 22.6722 19.6057 22.7225V24.826C19.6057 24.8801 19.5896 24.9153 19.5682 24.9347C19.5478 24.9533 19.5145 24.9647 19.4628 24.9544L19.4624 24.9543C18.6909 24.805 18.0354 24.346 17.7384 23.5539L17.7384 23.5539L17.7375 23.5518C17.6972 23.4578 17.645 23.3829 17.5755 23.3317C17.5053 23.28 17.4216 23.2554 17.3241 23.2554H16.8552C16.7388 23.2554 16.6365 23.2896 16.573 23.365C16.5085 23.4417 16.4937 23.5491 16.5282 23.6736L16.5764 23.6602L16.5281 23.6731C16.9147 25.1163 18.1513 25.938 19.4843 26.1174ZM19.3736 18.8559L19.3736 18.8559L19.3747 18.8557C19.4554 18.8384 19.5144 18.8487 19.551 18.8704C19.5857 18.891 19.6057 18.9249 19.6057 18.9716V21.3032C19.6057 21.3564 19.5904 21.3782 19.5729 21.3896C19.5511 21.4038 19.5117 21.4115 19.4448 21.4055L19.4444 21.4054C18.7106 21.3443 18.1597 20.7328 18.1597 19.998C18.1597 19.4606 18.589 19.0054 19.3736 18.8559ZM20.6395 22.7089C21.0353 22.7466 21.376 22.8372 21.617 23.0161C21.8548 23.1926 22.0007 23.4589 22.0007 23.8629C22.0007 24.1505 21.8757 24.3933 21.6424 24.5812C21.4079 24.77 21.063 24.9038 20.6254 24.9664C20.5713 24.9717 20.5363 24.96 20.5152 24.9418C20.4945 24.9239 20.4787 24.8922 20.4787 24.8387V22.8238C20.4787 22.7705 20.4942 22.7439 20.5138 22.7294C20.5359 22.7131 20.5749 22.703 20.6395 22.7089Z" fill="#1A0352" stroke="#1A0352" stroke-width="0.1"/>
</g>
<defs>
<clipPath id="clip0">
<rect width="28.8" height="28.8" fill="white" transform="translate(10.8 8.40002)"/>
</clipPath>
</defs>
</svg>
