<svg width="48" height="48" viewBox="0 0 48 48" fill="none" xmlns="http://www.w3.org/2000/svg">
<circle cx="24" cy="24" r="24" fill="#05F58F"/>
<g clip-path="url(#clip0)">
<path fill-rule="evenodd" clip-rule="evenodd" d="M32.775 17.25H15.225C15.0459 17.25 14.8742 17.3211 14.7477 17.4477C14.6211 17.5743 14.55 17.746 14.55 17.925V30.075C14.55 30.254 14.6211 30.4257 14.7477 30.5523C14.8742 30.6789 15.0459 30.75 15.225 30.75H32.775C32.954 30.75 33.1257 30.6789 33.2522 30.5523C33.3788 30.4257 33.45 30.254 33.45 30.075V17.925C33.45 17.746 33.3788 17.5743 33.2522 17.4477C33.1257 17.3211 32.954 17.25 32.775 17.25ZM15.225 15.9C14.6879 15.9 14.1728 16.1134 13.7931 16.4931C13.4133 16.8729 13.2 17.388 13.2 17.925V30.075C13.2 30.6121 13.4133 31.1272 13.7931 31.5069C14.1728 31.8867 14.6879 32.1 15.225 32.1H32.775C33.312 32.1 33.8271 31.8867 34.2068 31.5069C34.5866 31.1272 34.8 30.6121 34.8 30.075V17.925C34.8 17.388 34.5866 16.8729 34.2068 16.4931C33.8271 16.1134 33.312 15.9 32.775 15.9H15.225Z" fill="#1A0352"/>
<path fill-rule="evenodd" clip-rule="evenodd" d="M22.65 20.6251C22.65 20.446 22.7211 20.2744 22.8477 20.1478C22.9743 20.0212 23.1459 19.9501 23.325 19.9501H30.075C30.254 19.9501 30.4257 20.0212 30.5523 20.1478C30.6788 20.2744 30.75 20.446 30.75 20.6251C30.75 20.8041 30.6788 20.9758 30.5523 21.1024C30.4257 21.229 30.254 21.3001 30.075 21.3001H23.325C23.1459 21.3001 22.9743 21.229 22.8477 21.1024C22.7211 20.9758 22.65 20.8041 22.65 20.6251ZM20.6304 19.4722C20.6932 19.5349 20.7431 19.6094 20.7771 19.6914C20.8112 19.7734 20.8287 19.8613 20.8287 19.9501C20.8287 20.0389 20.8112 20.1268 20.7771 20.2088C20.7431 20.2908 20.6932 20.3653 20.6304 20.428L18.6054 22.453C18.5427 22.5158 18.4682 22.5657 18.3862 22.5997C18.3042 22.6338 18.2163 22.6513 18.1275 22.6513C18.0387 22.6513 17.9508 22.6338 17.8688 22.5997C17.7868 22.5657 17.7123 22.5158 17.6496 22.453L16.9746 21.778C16.9118 21.7152 16.862 21.6407 16.8281 21.5587C16.7941 21.4767 16.7766 21.3888 16.7766 21.3001C16.7766 21.1208 16.8478 20.9489 16.9746 20.8222C17.1013 20.6954 17.2732 20.6242 17.4525 20.6242C17.6317 20.6242 17.8036 20.6954 17.9304 20.8222L18.1275 21.0206L19.6746 19.4722C19.7373 19.4093 19.8118 19.3594 19.8938 19.3254C19.9758 19.2914 20.0637 19.2739 20.1525 19.2739C20.2412 19.2739 20.3292 19.2914 20.4112 19.3254C20.4932 19.3594 20.5677 19.4093 20.6304 19.4722ZM22.65 26.0251C22.65 25.846 22.7211 25.6744 22.8477 25.5478C22.9743 25.4212 23.1459 25.3501 23.325 25.3501H30.075C30.254 25.3501 30.4257 25.4212 30.5523 25.5478C30.6788 25.6744 30.75 25.846 30.75 26.0251C30.75 26.2041 30.6788 26.3758 30.5523 26.5024C30.4257 26.629 30.254 26.7001 30.075 26.7001H23.325C23.1459 26.7001 22.9743 26.629 22.8477 26.5024C22.7211 26.3758 22.65 26.2041 22.65 26.0251ZM20.6304 24.8722C20.6932 24.9349 20.7431 25.0094 20.7771 25.0914C20.8112 25.1734 20.8287 25.2613 20.8287 25.3501C20.8287 25.4389 20.8112 25.5268 20.7771 25.6088C20.7431 25.6908 20.6932 25.7653 20.6304 25.828L18.6054 27.853C18.5427 27.9158 18.4682 27.9657 18.3862 27.9997C18.3042 28.0338 18.2163 28.0513 18.1275 28.0513C18.0387 28.0513 17.9508 28.0338 17.8688 27.9997C17.7868 27.9657 17.7123 27.9158 17.6496 27.853L16.9746 27.178C16.9118 27.1152 16.862 27.0407 16.8281 26.9587C16.7941 26.8767 16.7766 26.7888 16.7766 26.7001C16.7766 26.6113 16.7941 26.5234 16.8281 26.4414C16.862 26.3594 16.9118 26.2849 16.9746 26.2222C17.0373 26.1594 17.1118 26.1096 17.1938 26.0757C17.2758 26.0417 17.3637 26.0242 17.4525 26.0242C17.5412 26.0242 17.6291 26.0417 17.7111 26.0757C17.7931 26.1096 17.8676 26.1594 17.9304 26.2222L18.1275 26.4206L19.6746 24.8722C19.7373 24.8093 19.8118 24.7594 19.8938 24.7254C19.9758 24.6914 20.0637 24.6739 20.1525 24.6739C20.2412 24.6739 20.3292 24.6914 20.4112 24.7254C20.4932 24.7594 20.5677 24.8093 20.6304 24.8722Z" fill="#1A0352"/>
</g>
<defs>
<clipPath id="clip0">
<rect width="21.6" height="21.6" fill="white" transform="translate(13.2 13.2)"/>
</clipPath>
</defs>
</svg>
