<svg xmlns="http://www.w3.org/2000/svg" width="48" height="48" fill="none" viewBox="0 0 48 48">
    <circle cx="24" cy="24" r="24" fill="#fff"/>
    <g clip-path="url(#clip0)">
        <path fill="#1A0352" fill-rule="evenodd" d="M33.45 32.1s1.35 0 1.35-1.35-1.35-5.4-6.75-5.4-6.75 4.05-6.75 5.4c0 1.35 1.35 1.35 1.35 1.35h10.8zm-10.793-1.274v-.003.003zm.023-.076h10.74c.007 0 .013-.002.02-.003l.01-.002c-.003-.357-.226-1.39-1.026-2.322-.745-.874-2.055-1.723-4.374-1.723-2.318 0-3.628.85-4.374 1.723-.8.931-1.025 1.967-1.026 2.322l.03.005zm10.763.076v-.003.003zM28.05 22.65c.716 0 1.403-.284 1.91-.79.505-.507.79-1.194.79-1.91s-.285-1.403-.79-1.91c-.507-.505-1.194-.79-1.91-.79s-1.403.285-1.91.79c-.506.507-.79 1.194-.79 1.91s.284 1.403.79 1.91c.507.506 1.194.79 1.91.79zm4.05-2.7c0 .532-.105 1.059-.308 1.55-.204.491-.502.938-.878 1.314-.376.376-.823.674-1.314.878-.492.203-1.018.308-1.55.308s-1.059-.105-1.55-.308c-.491-.204-.938-.502-1.314-.878-.376-.376-.674-.823-.878-1.314-.203-.491-.308-1.018-.308-1.55 0-1.074.427-2.104 1.186-2.864.76-.76 1.79-1.186 2.864-1.186 1.074 0 2.104.427 2.864 1.186.76.76 1.186 1.79 1.186 2.864zm-9.536 5.778c-.54-.17-1.097-.282-1.66-.333-.318-.03-.636-.045-.954-.045-5.4 0-6.75 4.05-6.75 5.4 0 .9.45 1.35 1.35 1.35h5.692c-.2-.421-.3-.884-.292-1.35 0-1.363.509-2.757 1.472-3.92.328-.397.71-.768 1.142-1.102zm-2.722.972c-2.252.027-3.53.864-4.266 1.723-.806.937-1.026 1.975-1.026 2.327h4.05c0-1.41.436-2.816 1.242-4.05zm-4.617-6.075c0-1.074.427-2.104 1.186-2.864.76-.76 1.79-1.186 2.864-1.186 1.074 0 2.104.427 2.864 1.186.76.76 1.186 1.79 1.186 2.864 0 1.074-.427 2.104-1.186 2.864-.76.76-1.79 1.186-2.864 1.186-1.074 0-2.104-.427-2.864-1.186-.76-.76-1.186-1.79-1.186-2.864zm4.05-2.7c-.716 0-1.403.284-1.91.79-.506.507-.79 1.194-.79 1.91s.284 1.403.79 1.91c.507.506 1.194.79 1.91.79s1.403-.284 1.91-.79c.506-.507.79-1.194.79-1.91s-.285-1.403-.79-1.91c-.507-.506-1.194-.79-1.91-.79z" clip-rule="evenodd"/>
    </g>
    <defs>
        <clipPath id="clip0">
            <path fill="#fff" d="M0 0H21.6V21.6H0z" transform="translate(13.2 13.2)"/>
        </clipPath>
    </defs>
</svg>
