<svg width="48" height="48" viewBox="0 0 48 48" fill="none" xmlns="http://www.w3.org/2000/svg">
<circle cx="24" cy="24" r="24" fill="#05F58F"/>
<g clip-path="url(#clip0)">
<path fill-rule="evenodd" clip-rule="evenodd" d="M15.225 17.25C15.0459 17.25 14.8742 17.3211 14.7477 17.4477C14.6211 17.5743 14.55 17.746 14.55 17.925V20.625H21.3C21.479 20.625 21.6507 20.6961 21.7772 20.8227C21.9038 20.9493 21.975 21.121 21.975 21.3C21.975 21.6416 22.083 22.1694 22.3881 22.5933C22.6675 22.9821 23.14 23.325 24 23.325C24.8599 23.325 25.3324 22.9821 25.6119 22.5933C25.917 22.1694 26.025 21.6416 26.025 21.3C26.025 21.121 26.0961 20.9493 26.2227 20.8227C26.3492 20.6961 26.5209 20.625 26.7 20.625H33.45V17.925C33.45 17.746 33.3788 17.5743 33.2522 17.4477C33.1257 17.3211 32.954 17.25 32.775 17.25H15.225V17.25ZM33.45 21.975H27.3061C27.2093 22.4812 27.0054 22.9608 26.7081 23.3817C26.1775 24.1188 25.3 24.675 24 24.675C22.6999 24.675 21.8224 24.1188 21.2919 23.3817C20.9946 22.9608 20.7907 22.4812 20.6938 21.975H14.55V30.075C14.55 30.254 14.6211 30.4257 14.7477 30.5523C14.8742 30.6789 15.0459 30.75 15.225 30.75H32.775C32.954 30.75 33.1257 30.6789 33.2522 30.5523C33.3788 30.4257 33.45 30.254 33.45 30.075V21.975ZM13.2 17.925C13.2 17.388 13.4133 16.8729 13.7931 16.4931C14.1728 16.1134 14.6879 15.9 15.225 15.9H32.775C33.312 15.9 33.8271 16.1134 34.2068 16.4931C34.5866 16.8729 34.8 17.388 34.8 17.925V30.075C34.8 30.6121 34.5866 31.1272 34.2068 31.5069C33.8271 31.8867 33.312 32.1 32.775 32.1H15.225C14.6879 32.1 14.1728 31.8867 13.7931 31.5069C13.4133 31.1272 13.2 30.6121 13.2 30.075V17.925Z" fill="#1A0352"/>
</g>
<defs>
<clipPath id="clip0">
<rect width="21.6" height="21.6" fill="white" transform="translate(13.2 13.2)"/>
</clipPath>
</defs>
</svg>
