<svg width="23" height="29" viewBox="0 0 23 29" fill="none" xmlns="http://www.w3.org/2000/svg">
<path d="M2.3 0C1.02925 0 0 1.0382 0 2.32V26.68C0 27.9618 1.02925 29 2.3 29H20.7C21.9707 29 23 27.9618 23 26.68V8.7C23 8.3926 22.8793 8.09792 22.6631 7.87984L15.1881 0.339844C14.9719 0.121764 14.6797 0 14.375 0H2.3ZM13.8 2.20898L20.8101 9.28H14.95C14.3152 9.28 13.8 8.76032 13.8 8.12V2.20898ZM5.25361 14.1171C5.60666 14.1171 5.95425 14.1507 6.2958 14.2168C6.63735 14.2829 6.94201 14.4105 7.20996 14.6042C7.47791 14.7979 7.69792 15.0706 7.86582 15.4221C8.03372 15.7747 8.11738 16.2336 8.11738 16.7973C8.11853 17.3077 8.0477 17.7394 7.90625 18.0955C7.76365 18.4517 7.57489 18.7417 7.33799 18.9655C7.09994 19.1894 6.82417 19.3517 6.51367 19.4527C6.20202 19.5536 5.88349 19.6045 5.55459 19.6045H5.4041C5.33395 19.6045 5.26213 19.6023 5.18623 19.5977C5.11033 19.593 5.03407 19.5899 4.96162 19.5818C4.88917 19.5748 4.83769 19.565 4.80664 19.5569V22.3527H3.35791V14.3142C3.63391 14.2527 3.93753 14.204 4.26758 14.1692C4.59648 14.1344 4.92471 14.1171 5.25361 14.1171ZM11.0957 14.1171C11.7317 14.1171 12.2627 14.2167 12.6882 14.4139C13.1137 14.6111 13.456 14.8881 13.7124 15.2477C13.97 15.6073 14.1501 16.039 14.2582 16.5413C14.3652 17.0436 14.4199 17.6064 14.4199 18.2247C14.4199 18.7896 14.3684 19.3285 14.2649 19.8423C14.1614 20.3562 13.9802 20.8085 13.7191 21.1995C13.4569 21.5904 13.104 21.9009 12.659 22.1329C12.2139 22.3649 11.6562 22.4818 10.9812 22.4818C10.8823 22.4818 10.7459 22.4763 10.5769 22.4682C10.409 22.4601 10.233 22.4526 10.049 22.441C9.86502 22.4294 9.68799 22.4164 9.51894 22.4048C9.35104 22.3932 9.22013 22.3802 9.12813 22.364V14.2327C9.26612 14.2095 9.42281 14.1921 9.59531 14.1805C9.76666 14.1689 9.94259 14.1582 10.1231 14.1466C10.3025 14.135 10.4786 14.1274 10.6465 14.1239C10.8155 14.1204 10.9646 14.1171 11.0957 14.1171ZM15.5699 14.2327H19.5949V15.5784H17.0209V17.69H19.3883V19.0358H17.0209V22.3527H15.5699V14.2327ZM5.39287 15.4153C5.15597 15.4153 4.96074 15.4359 4.80664 15.4742V18.2473C4.85264 18.2636 4.93844 18.2765 5.06494 18.2881C5.19144 18.2997 5.27949 18.304 5.32549 18.304C5.49339 18.304 5.6543 18.2824 5.8084 18.236C5.96135 18.1896 6.09764 18.1106 6.21494 17.9981C6.33454 17.8856 6.4301 17.7309 6.49795 17.5337C6.5681 17.3365 6.60127 17.0876 6.60127 16.786C6.60127 16.5308 6.56799 16.3133 6.50244 16.1358C6.43689 15.9583 6.35005 15.8165 6.23965 15.7121C6.1281 15.6077 5.99822 15.5319 5.85332 15.4855C5.70727 15.4391 5.55387 15.4153 5.39287 15.4153ZM11.2462 15.4629C11.1243 15.4629 10.9998 15.465 10.8733 15.4697C10.748 15.4732 10.6481 15.4818 10.5791 15.4969V21.0884C10.6033 21.0954 10.6429 21.1031 10.7004 21.1066C10.7579 21.11 10.8202 21.1144 10.8846 21.1179C10.949 21.1214 11.009 21.1257 11.0665 21.1292C11.124 21.1327 11.1648 21.136 11.1878 21.136C11.5328 21.136 11.816 21.0537 12.0391 20.8913C12.2599 20.7289 12.4371 20.5114 12.5624 20.2411C12.6889 19.9708 12.7757 19.6591 12.8252 19.3077C12.8746 18.9562 12.9016 18.586 12.9016 18.1998C12.9016 17.8436 12.879 17.5018 12.8364 17.1689C12.7973 16.8371 12.7157 16.5438 12.5961 16.2921C12.4765 16.0415 12.3103 15.8403 12.093 15.6895C11.8745 15.5387 11.59 15.4629 11.2462 15.4629Z" fill="#EB3359"/>
</svg>
