<svg xmlns="http://www.w3.org/2000/svg" width="48" height="48" fill="none" viewBox="0 0 48 48">
    <circle cx="24" cy="24" r="24" fill="#1A0352"/>
    <path fill="#05F58F" fill-rule="evenodd" d="M34.037 17.563c.084.084.15.183.196.292.045.11.069.227.069.345 0 .119-.024.236-.07.345-.045.11-.111.209-.195.292l-12.6 12.6c-.084.084-.183.15-.292.196-.11.045-.227.069-.345.069-.119 0-.236-.024-.345-.069-.11-.045-.209-.112-.292-.196l-5.4-5.4c-.084-.083-.15-.183-.196-.292-.045-.11-.068-.227-.068-.345 0-.118.023-.235.068-.345.046-.11.112-.209.196-.292.083-.084.183-.15.292-.196.11-.045.227-.068.345-.068.118 0 .235.023.345.069.11.045.208.111.292.195l4.763 4.764 11.963-11.964c.083-.084.183-.15.292-.196.11-.045.227-.069.345-.069.118 0 .236.024.345.07.11.045.209.111.292.195z" clip-rule="evenodd"/>
</svg>
