<svg width="30" height="25" viewBox="0 0 30 25" fill="none" xmlns="http://www.w3.org/2000/svg">
<path d="M25.983 8.342C25.988 8.228 26 8.116 26 8C26 3.582 22.418 0 18 0C14.89 0 12.2 1.779 10.877 4.371C10.296 4.136 9.665 4 9 4C6.47 4 4.401 5.885 4.068 8.324C1.703 9.129 0 11.363 0 14C0 17.314 2.686 20 6 20H24C27.314 20 30 17.314 30 14C30 11.382 28.321 9.162 25.983 8.342ZM11.293 11.293L14.293 8.293C14.488 8.098 14.744 8 15 8C15.256 8 15.512 8.098 15.707 8.293L18.707 11.293C19.098 11.684 19.098 12.316 18.707 12.707C18.316 13.098 17.684 13.098 17.293 12.707L16 11.414V24C16 24.552 15.553 25 15 25C14.447 25 14 24.552 14 24V11.414L12.707 12.707C12.316 13.098 11.684 13.098 11.293 12.707C10.902 12.316 10.902 11.684 11.293 11.293Z" fill="#05F58F"/>
</svg>
