<svg xmlns="http://www.w3.org/2000/svg" width="48" height="48" fill="none" viewBox="0 0 48 48">
    <circle cx="24" cy="24" r="24" fill="#fff"/>
    <g fill="#1A0352" clip-path="url(#clip0)">
        <path d="M34.128 15.819c.126.127.197.298.197.477 0 .178-.071.35-.197.476l-1.408 1.41-2.7-2.7 1.408-1.41c.126-.126.298-.197.477-.197s.35.07.477.197l1.746 1.746v.001zm-2.363 3.316l-2.7-2.7-9.197 9.199c-.075.074-.13.164-.164.264l-1.087 3.259c-.02.06-.022.123-.008.184.015.061.046.117.09.161s.1.075.161.09c.061.014.125.011.184-.008l3.259-1.087c.1-.033.19-.088.265-.162l9.197-9.199v-.001z"/>
        <path fill-rule="evenodd" d="M14.55 31.425c0 .537.213 1.052.593 1.432.38.38.895.593 1.432.593h14.85c.537 0 1.052-.213 1.432-.593.38-.38.593-.895.593-1.432v-8.1c0-.179-.071-.35-.198-.477-.126-.127-.298-.198-.477-.198s-.35.071-.477.198c-.127.126-.198.298-.198.477v8.1c0 .179-.071.35-.198.477-.126.127-.298.198-.477.198h-14.85c-.179 0-.35-.071-.477-.198-.127-.126-.198-.298-.198-.477v-14.85c0-.179.071-.35.198-.477.126-.127.298-.198.477-.198h8.775c.18 0 .35-.071.477-.198.127-.126.198-.298.198-.477s-.071-.35-.198-.477c-.126-.127-.298-.198-.477-.198h-8.775c-.537 0-1.052.213-1.432.593-.38.38-.593.895-.593 1.432v14.85z" clip-rule="evenodd"/>
    </g>
    <defs>
        <clipPath id="clip0">
            <path fill="#fff" d="M0 0H21.6V21.6H0z" transform="translate(13.2 13.2)"/>
        </clipPath>
    </defs>
</svg>
