<svg xmlns="http://www.w3.org/2000/svg" width="48" height="48" fill="none" viewBox="0 0 48 48">
    <circle cx="24" cy="24" r="24" fill="#fff"/>
    <g fill="#1A0352" stroke="#1A0352" clip-path="url(#clip0)">
        <path stroke-width=".3" d="M12.438 13.488c-.898 0-1.638.74-1.638 1.638v15.066c0 .956.772 1.728 1.728 1.728h2.358c.275 1.633 1.694 2.88 3.402 2.88 1.708 0 3.128-1.246 3.402-2.88h5.328c.425 0 .805-.18 1.098-.45.3.263.682.446 1.116.45h.63c.275 1.633 1.694 2.88 3.402 2.88 1.901 0 3.456-1.555 3.456-3.456s-1.555-3.456-3.456-3.456c-1.708 0-3.128 1.246-3.402 2.88h-.63c-.108 0-.272-.074-.396-.198-.124-.124-.18-.272-.18-.378V19.248c0-.216.36-.576.576-.576h4.608c.452 0 1.089.484 1.53 1.008.005.007.014.011.018.018l.09.126h-2.79c-.918 0-1.728.742-1.728 1.728v2.304c0 .48.216.9.522 1.206.306.306.727.522 1.206.522h5.76v4.608c0 .216-.36.576-.576.576H36.72v1.152h1.152c.956 0 1.728-.772 1.728-1.728v-5.544c0-1.319-.918-2.484-.918-2.484h-.018l-2.376-3.168v-.018l-.018-.018c-.531-.641-1.328-1.44-2.43-1.44h-4.608c-.205 0-.394.043-.576.108v-2.466c0-.884-.697-1.674-1.62-1.674H12.438zm0 1.152h14.598c.247 0 .468.239.468.522v15.12c0 .27-.214.486-.486.486H21.69c-.274-1.634-1.694-2.88-3.402-2.88-1.708 0-3.127 1.246-3.402 2.88h-2.358c-.216 0-.576-.362-.576-.576V15.126c0-.27.212-.486.486-.486zm20.25 6.336h3.654l1.404 1.872s.522.893.63 1.584h-5.688c-.097 0-.252-.072-.378-.198s-.198-.281-.198-.378v-2.304c0-.29.342-.576.576-.576zm-14.4 8.064c1.28 0 2.304 1.024 2.304 2.304 0 1.28-1.024 2.304-2.304 2.304-1.28 0-2.304-1.024-2.304-2.304 0-1.28 1.024-2.304 2.304-2.304zm14.976 0c1.28 0 2.304 1.024 2.304 2.304 0 1.28-1.024 2.304-2.304 2.304-1.28 0-2.304-1.024-2.304-2.304 0-1.28 1.024-2.304 2.304-2.304z"/>
        <path stroke-width=".1" d="M20.593 21.62c1.306.19 2.649.583 2.649 2.268 0 1.242-1.09 2.028-2.623 2.192-.127.013-.19.077-.19.19v.482c0 .203-.114.317-.317.317h-.14c-.202 0-.316-.101-.316-.304v-.494c0-.114-.051-.19-.165-.203l1.102-4.448zm0 0c-.114-.013-.164-.089-.164-.203v-2.395c0-.127.076-.202.215-.164l-.05 2.762zm-1.109 4.497h.001c.047.006.075.023.091.045.018.023.03.058.03.109v.494c0 .11.031.201.098.264.066.063.16.09.268.09h.14c.11 0 .204-.031.27-.097.065-.066.097-.16.097-.27v-.481c0-.048.013-.078.033-.098.02-.02.055-.037.112-.043h0c.773-.083 1.439-.323 1.913-.703.475-.38.755-.901.755-1.539 0-.859-.344-1.394-.857-1.736-.51-.34-1.181-.486-1.834-.582h0-.002c-.046-.005-.074-.022-.091-.044-.018-.023-.03-.058-.03-.109v-2.395c0-.054.017-.088.038-.105.02-.017.055-.027.115-.011.63.185 1.086.642 1.296 1.235h0c.035.096.084.171.152.223.069.052.153.077.25.077h.52c.117 0 .216-.035.278-.108.062-.075.077-.178.05-.295-.271-1.238-1.2-2.1-2.562-2.307-.05-.011-.083-.03-.103-.052-.02-.023-.033-.054-.033-.101v-.317c0-.11-.032-.204-.097-.27-.066-.066-.16-.097-.27-.097h-.14c-.11 0-.204.031-.27.097-.065.066-.096.16-.096.27v.291c0 .048-.013.082-.035.106-.021.024-.056.042-.11.047h0c-1.497.154-2.567 1.028-2.567 2.255 0 .844.323 1.463.81 1.888.487.423 1.134.65 1.781.721l.006-.05-.006.05c.047.006.075.023.091.045.018.023.03.058.03.108v2.104c0 .054-.016.09-.038.109-.02.018-.053.03-.105.02h0c-.772-.15-1.428-.609-1.725-1.401h0v-.002c-.04-.094-.093-.17-.162-.22-.07-.052-.154-.077-.252-.077h-.469c-.116 0-.218.035-.282.11-.064.077-.08.184-.045.309l.048-.014-.048.013c.387 1.443 1.623 2.265 2.956 2.444zm-.11-7.261h0c.081-.018.14-.007.177.014.035.021.055.055.055.102v2.331c0 .053-.016.075-.033.087-.022.014-.061.021-.128.015h0c-.734-.06-1.285-.672-1.285-1.407 0-.537.429-.993 1.214-1.142zm1.266 3.853c.395.038.736.128.977.307.238.177.384.443.384.847 0 .288-.125.53-.359.718-.234.189-.579.323-1.017.385-.054.006-.089-.006-.11-.024-.02-.018-.036-.05-.036-.103v-2.015c0-.054.015-.08.035-.095.022-.016.06-.026.126-.02z"/>
    </g>
    <defs>
        <clipPath id="clip0">
            <path fill="#fff" d="M0 0H28.8V28.8H0z" transform="translate(10.8 8.4)"/>
        </clipPath>
    </defs>
</svg>
