<svg xmlns="http://www.w3.org/2000/svg" width="48" height="48" fill="none" viewBox="0 0 48 48">
    <circle cx="24" cy="24" r="24" fill="#fff"/>
    <g fill="#1A0352" fill-rule="evenodd" clip-path="url(#clip0)" clip-rule="evenodd">
        <path d="M32.775 17.25h-17.55c-.18 0-.35.071-.477.198-.127.126-.198.298-.198.477v12.15c0 .179.071.35.198.477.126.127.298.198.477.198h17.55c.179 0 .35-.071.477-.198.127-.126.198-.298.198-.477v-12.15c0-.179-.071-.35-.198-.477-.126-.127-.298-.198-.477-.198zm-17.55-1.35c-.537 0-1.052.213-1.432.593-.38.38-.593.895-.593 1.432v12.15c0 .537.213 1.052.593 1.432.38.38.895.593 1.432.593h17.55c.537 0 1.052-.213 1.432-.593.38-.38.593-.895.593-1.432v-12.15c0-.537-.213-1.052-.593-1.432-.38-.38-.895-.593-1.432-.593h-17.55z"/>
        <path d="M22.65 20.625c0-.179.071-.35.198-.477.126-.127.298-.198.477-.198h6.75c.179 0 .35.071.477.198.127.126.198.298.198.477 0 .18-.071.35-.198.477-.126.127-.298.198-.477.198h-6.75c-.18 0-.35-.071-.477-.198-.127-.126-.198-.298-.198-.477zm-2.02-1.153c.063.063.113.137.147.22.034.081.052.17.052.258 0 .089-.018.177-.052.259-.034.082-.084.156-.147.219l-2.025 2.025c-.062.063-.137.113-.219.147-.082.034-.17.051-.258.051-.09 0-.177-.017-.26-.051-.081-.034-.156-.084-.218-.147l-.675-.675c-.063-.063-.113-.137-.147-.22-.034-.081-.051-.17-.051-.258 0-.18.07-.351.198-.478.126-.127.298-.198.477-.198.18 0 .352.071.478.198l.198.199 1.547-1.549c.062-.063.137-.113.219-.147.082-.034.17-.051.259-.051.088 0 .176.017.258.051.082.034.157.084.22.147zm2.02 6.553c0-.179.071-.35.198-.477.126-.127.298-.198.477-.198h6.75c.179 0 .35.071.477.198.127.126.198.298.198.477 0 .18-.071.35-.198.477-.126.127-.298.198-.477.198h-6.75c-.18 0-.35-.071-.477-.198-.127-.126-.198-.298-.198-.477zm-2.02-1.153c.063.063.113.137.147.22.034.081.052.17.052.258 0 .089-.018.177-.052.259-.034.082-.084.156-.147.219l-2.025 2.025c-.062.063-.137.113-.219.147-.082.034-.17.051-.258.051-.09 0-.177-.017-.26-.051-.081-.034-.156-.084-.218-.147l-.675-.675c-.063-.063-.113-.137-.147-.22-.034-.081-.051-.17-.051-.258 0-.089.017-.177.051-.259.034-.082.084-.156.147-.219.062-.063.137-.112.219-.146.082-.034.17-.052.259-.052.088 0 .176.018.258.052.082.034.157.083.22.146l.197.199 1.547-1.549c.062-.063.137-.113.219-.147.082-.034.17-.051.259-.051.088 0 .176.017.258.051.082.034.157.084.22.147z"/>
    </g>
    <defs>
        <clipPath id="clip0">
            <path fill="#fff" d="M0 0H21.6V21.6H0z" transform="translate(13.2 13.2)"/>
        </clipPath>
    </defs>
</svg>
