<svg width="28" height="28" viewBox="0 0 28 28" fill="none" xmlns="http://www.w3.org/2000/svg">
<circle cx="14" cy="14" r="14" fill="white"/>
<path fill-rule="evenodd" clip-rule="evenodd" d="M20.0878 10.4782C20.1367 10.527 20.1755 10.5849 20.2019 10.6487C20.2284 10.7125 20.242 10.7809 20.242 10.8499C20.242 10.919 20.2284 10.9873 20.2019 11.0511C20.1755 11.1149 20.1367 11.1728 20.0878 11.2216L12.7378 18.5716C12.689 18.6205 12.6311 18.6593 12.5673 18.6858C12.5035 18.7122 12.4351 18.7259 12.3661 18.7259C12.297 18.7259 12.2287 18.7122 12.1649 18.6858C12.1011 18.6593 12.0432 18.6205 11.9944 18.5716L8.84439 15.4216C8.79558 15.3728 8.75686 15.3149 8.73044 15.2511C8.70403 15.1873 8.69043 15.1189 8.69043 15.0499C8.69043 14.9809 8.70403 14.9125 8.73044 14.8488C8.75686 14.785 8.79558 14.727 8.84439 14.6782C8.89321 14.6294 8.95115 14.5907 9.01493 14.5643C9.07871 14.5378 9.14706 14.5243 9.21609 14.5243C9.28512 14.5243 9.35348 14.5378 9.41726 14.5643C9.48103 14.5907 9.53898 14.6294 9.58779 14.6782L12.3661 17.4576L19.3444 10.4782C19.3932 10.4293 19.4511 10.3905 19.5149 10.3641C19.5787 10.3376 19.647 10.324 19.7161 10.324C19.7851 10.324 19.8535 10.3376 19.9173 10.3641C19.9811 10.3905 20.039 10.4293 20.0878 10.4782Z" fill="#1A0352" stroke="#1A0352"/>
</svg>
