<svg xmlns="http://www.w3.org/2000/svg" width="48" height="48" fill="none" viewBox="0 0 48 48">
    <circle cx="24" cy="24" r="24" fill="#fff"/>
    <g clip-path="url(#clip0)">
        <path fill="#1A0352" fill-rule="evenodd" d="M15.225 17.25c-.18 0-.35.071-.477.198-.127.126-.198.298-.198.477v2.7h6.75c.179 0 .35.071.477.198.127.126.198.298.198.477 0 .342.108.87.413 1.293.28.39.752.732 1.612.732.86 0 1.332-.343 1.612-.732.305-.424.413-.951.413-1.293 0-.179.071-.35.198-.477.126-.127.298-.198.477-.198h6.75v-2.7c0-.179-.071-.35-.198-.477-.126-.127-.298-.198-.477-.198h-17.55zm18.225 4.725h-6.144c-.097.506-.3.986-.598 1.407-.53.737-1.408 1.293-2.708 1.293-1.3 0-2.178-.556-2.708-1.293-.297-.421-.501-.9-.598-1.407H14.55v8.1c0 .179.071.35.198.477.126.127.298.198.477.198h17.55c.179 0 .35-.071.477-.198.127-.126.198-.298.198-.477v-8.1zm-20.25-4.05c0-.537.213-1.052.593-1.432.38-.38.895-.593 1.432-.593h17.55c.537 0 1.052.213 1.432.593.38.38.593.895.593 1.432v12.15c0 .537-.213 1.052-.593 1.432-.38.38-.895.593-1.432.593h-17.55c-.537 0-1.052-.213-1.432-.593-.38-.38-.593-.895-.593-1.432v-12.15z" clip-rule="evenodd"/>
    </g>
    <defs>
        <clipPath id="clip0">
            <path fill="#fff" d="M0 0H21.6V21.6H0z" transform="translate(13.2 13.2)"/>
        </clipPath>
    </defs>
</svg>
